<svg width="210" height="210" viewBox="0 0 210 210" fill="none" xmlns="http://www.w3.org/2000/svg">
  <rect width="210" height="210" fill="#3F64FF" />
  <path fill-rule="evenodd" clip-rule="evenodd" d="M167.75 119.831C157.259 119.073 146.858 117.366 136.674 114.731C127.072 112.331 118.633 109.631 109.762 108.188C100.985 106.313 92.0204 105.863 82.1369 104.7C71.6712 103.714 61.3522 101.537 51.3799 98.2126C44.2835 95.6306 37.7875 91.6306 32.288 86.4564C30.9811 91.5174 30.2141 96.7026 30 101.925C33.1168 107.041 36.9009 111.72 41.2526 115.838C49.7295 123.23 59.4855 129.012 70.0404 132.9C80.5029 136.603 91.3484 139.119 102.373 140.4C113.612 141.736 124.951 142.019 136.243 141.244C147.835 140.523 159.306 138.479 170.432 135.15C171.707 134.775 173.001 134.4 174.183 133.988C176.097 129.404 177.554 124.644 178.534 119.775C174.943 119.981 171.343 120 167.75 119.831V119.831Z" fill="white" />
  <path fill-rule="evenodd" clip-rule="evenodd" d="M89.1921 85.5938C98.1191 86.3813 105.977 86.625 113.573 88.5938C121.281 90.1313 128.482 93.225 136.884 96.2063C146.027 99.5566 155.492 101.951 165.128 103.35C170.054 104.053 175.025 104.385 180 104.344C180 102.225 179.888 100.106 179.681 98.0063C173.926 96.9792 168.276 95.429 162.803 93.375C153.519 89.5836 144.907 84.3226 137.297 77.7938C130.639 72.075 125.088 67.2938 118.88 65.6063C112.672 63.9188 105.752 65.0625 97.2939 66.975C87.5907 69.559 77.5359 70.5719 67.5121 69.975C58.8879 69.315 50.471 67.0043 42.7189 63.1688C41.4999 65.0438 40.3559 66.9188 39.3057 68.7938C45.5759 73.9665 52.7656 77.9104 60.498 80.4188C69.8225 83.2798 79.4554 85.0171 89.1921 85.5938V85.5938Z" fill="white" />
  <path fill-rule="evenodd" clip-rule="evenodd" d="M105.014 30.0001C85.371 29.9747 66.5073 37.6801 52.502 51.4501C59.5347 54.2932 67.0287 55.8247 74.6133 55.9688C85.1532 56.3626 94.8679 53.0813 102.745 50.0438C110.622 47.0063 117.035 45.2626 122.699 47.2501C128.363 49.2376 133.258 54.3751 138.772 61.0501C144.285 67.7251 151.787 74.7376 161.277 79.3688C166.364 81.8024 171.695 83.6881 177.18 84.9938C172.81 69.2055 163.388 55.2822 150.357 45.3515C137.325 35.4208 121.4 30.029 105.014 30.0001V30.0001Z" fill="white" />
  <path fill-rule="evenodd" clip-rule="evenodd" d="M105.021 180C116.669 180.01 128.159 177.304 138.577 172.096C148.995 166.888 158.054 159.322 165.035 150C155.649 152.745 146.032 154.628 136.303 155.625C123.409 157.013 110.416 157.232 97.482 156.281C84.8741 155.471 72.3983 153.238 60.2922 149.625C52.4871 147.102 45.0469 143.565 38.1621 139.106C44.4522 151.422 54.0258 161.76 65.8249 168.977C77.624 176.194 91.1892 180.009 105.021 180Z" fill="white" />
</svg>
