<svg width="760" height="479" viewBox="0 0 760 479" fill="none" xmlns="http://www.w3.org/2000/svg">
<path opacity="0.7" d="M671.875 437.12C671.555 436.704 671.15 436.384 670.659 436.16C670.169 435.936 669.662 435.824 669.139 435.824C668.499 435.824 667.918 435.947 667.395 436.192C666.883 436.427 666.441 436.752 666.067 437.168C665.705 437.584 665.422 438.075 665.219 438.64C665.017 439.195 664.915 439.792 664.915 440.432C664.915 441.029 665.011 441.595 665.203 442.128C665.395 442.661 665.673 443.131 666.035 443.536C666.398 443.941 666.841 444.261 667.363 444.496C667.886 444.731 668.478 444.848 669.139 444.848C669.79 444.848 670.361 444.715 670.851 444.448C671.342 444.181 671.758 443.808 672.099 443.328L673.395 444.304C673.31 444.421 673.161 444.592 672.947 444.816C672.734 445.029 672.451 445.248 672.099 445.472C671.747 445.685 671.321 445.872 670.819 446.032C670.329 446.203 669.758 446.288 669.107 446.288C668.211 446.288 667.401 446.117 666.675 445.776C665.961 445.435 665.347 444.987 664.835 444.432C664.334 443.877 663.95 443.253 663.683 442.56C663.417 441.856 663.283 441.147 663.283 440.432C663.283 439.557 663.427 438.752 663.715 438.016C664.003 437.269 664.403 436.629 664.915 436.096C665.438 435.552 666.062 435.131 666.787 434.832C667.513 434.533 668.313 434.384 669.187 434.384C669.934 434.384 670.665 434.528 671.379 434.816C672.105 435.104 672.697 435.547 673.155 436.144L671.875 437.12ZM675.141 434.672H677.429L681.029 443.248H681.093L684.661 434.672H686.949V446H685.413V436.688H685.381L681.557 446H680.533L676.709 436.688H676.677V446H675.141V434.672ZM692.425 441.168L688.137 434.672H690.105L693.193 439.648L696.377 434.672H698.249L693.961 441.168V446H692.425V441.168ZM699.55 434.672H701.086V439.568H701.214L706.222 434.672H708.366L702.894 439.904L708.734 446H706.494L701.214 440.336H701.086V446H699.55V434.672ZM636.197 461.96C635.855 462.504 635.557 463.027 635.301 463.528C635.045 464.029 634.831 464.541 634.661 465.064C634.49 465.576 634.362 466.109 634.277 466.664C634.191 467.219 634.149 467.816 634.149 468.456C634.149 469.629 634.319 470.765 634.661 471.864C635.002 472.963 635.514 473.981 636.197 474.92L635.237 475.56C634.501 474.557 633.925 473.453 633.509 472.248C633.103 471.043 632.901 469.779 632.901 468.456C632.901 467.229 633.098 466.003 633.493 464.776C633.887 463.549 634.469 462.408 635.237 461.352L636.197 461.96ZM637.322 471.368L641.866 466.856C642.026 466.707 642.181 466.547 642.33 466.376C642.479 466.195 642.613 466.008 642.73 465.816C642.847 465.624 642.938 465.421 643.002 465.208C643.077 464.995 643.114 464.771 643.114 464.536C643.114 464.259 643.061 464.008 642.954 463.784C642.858 463.56 642.719 463.373 642.538 463.224C642.367 463.064 642.159 462.941 641.914 462.856C641.679 462.771 641.429 462.728 641.162 462.728C640.607 462.728 640.149 462.883 639.786 463.192C639.423 463.501 639.194 463.928 639.098 464.472L637.434 464.328C637.509 463.827 637.653 463.395 637.866 463.032C638.09 462.659 638.362 462.349 638.682 462.104C639.013 461.859 639.386 461.677 639.802 461.56C640.229 461.443 640.687 461.384 641.178 461.384C641.669 461.384 642.127 461.453 642.554 461.592C642.991 461.72 643.37 461.917 643.69 462.184C644.021 462.44 644.277 462.765 644.458 463.16C644.65 463.544 644.746 463.997 644.746 464.52C644.746 464.893 644.687 465.245 644.57 465.576C644.463 465.896 644.319 466.2 644.138 466.488C643.957 466.776 643.749 467.048 643.514 467.304C643.279 467.56 643.034 467.811 642.778 468.056L639.05 471.656H644.746V473H637.322V471.368ZM647.829 470.232C648.01 470.776 648.25 471.181 648.549 471.448C648.858 471.715 649.311 471.848 649.909 471.848C650.207 471.848 650.485 471.8 650.741 471.704C651.007 471.597 651.242 471.459 651.445 471.288C651.647 471.107 651.807 470.893 651.925 470.648C652.042 470.392 652.101 470.109 652.101 469.8C652.101 469.331 651.999 468.957 651.797 468.68C651.605 468.392 651.354 468.179 651.045 468.04C650.735 467.891 650.394 467.795 650.021 467.752C649.647 467.709 649.279 467.688 648.917 467.688V466.344C649.503 466.344 649.983 466.307 650.357 466.232C650.73 466.147 651.023 466.029 651.237 465.88C651.45 465.731 651.599 465.544 651.685 465.32C651.77 465.096 651.813 464.845 651.813 464.568C651.813 463.96 651.631 463.501 651.269 463.192C650.906 462.883 650.453 462.728 649.909 462.728C649.493 462.728 649.114 462.851 648.773 463.096C648.442 463.331 648.191 463.645 648.021 464.04L646.453 463.512C646.751 462.787 647.205 462.253 647.813 461.912C648.431 461.56 649.119 461.384 649.877 461.384C650.335 461.384 650.773 461.448 651.189 461.576C651.615 461.693 651.989 461.88 652.309 462.136C652.629 462.392 652.879 462.717 653.061 463.112C653.253 463.496 653.349 463.949 653.349 464.472C653.349 465.069 653.167 465.603 652.805 466.072C652.453 466.541 651.989 466.861 651.413 467.032V467.064C651.765 467.128 652.079 467.245 652.357 467.416C652.634 467.587 652.869 467.8 653.061 468.056C653.253 468.312 653.397 468.6 653.493 468.92C653.589 469.229 653.637 469.56 653.637 469.912C653.637 470.456 653.53 470.936 653.317 471.352C653.114 471.757 652.837 472.099 652.485 472.376C652.143 472.643 651.743 472.845 651.285 472.984C650.837 473.123 650.362 473.192 649.861 473.192C648.997 473.192 648.234 472.995 647.573 472.6C646.922 472.205 646.469 471.581 646.213 470.728L647.829 470.232ZM659.743 470.504H654.911V468.936L659.423 461.672H661.279V469.16H662.879V470.504H661.279V473H659.743V470.504ZM659.743 463.496H659.711L656.255 469.16H659.743V463.496ZM665.338 475.112H664.026L665.13 471.176H666.682L665.338 475.112ZM672.9 471.368L677.444 466.856C677.604 466.707 677.759 466.547 677.908 466.376C678.057 466.195 678.191 466.008 678.308 465.816C678.425 465.624 678.516 465.421 678.58 465.208C678.655 464.995 678.692 464.771 678.692 464.536C678.692 464.259 678.639 464.008 678.532 463.784C678.436 463.56 678.297 463.373 678.116 463.224C677.945 463.064 677.737 462.941 677.492 462.856C677.257 462.771 677.007 462.728 676.74 462.728C676.185 462.728 675.727 462.883 675.364 463.192C675.001 463.501 674.772 463.928 674.676 464.472L673.012 464.328C673.087 463.827 673.231 463.395 673.444 463.032C673.668 462.659 673.94 462.349 674.26 462.104C674.591 461.859 674.964 461.677 675.38 461.56C675.807 461.443 676.265 461.384 676.756 461.384C677.247 461.384 677.705 461.453 678.132 461.592C678.569 461.72 678.948 461.917 679.268 462.184C679.599 462.44 679.855 462.765 680.036 463.16C680.228 463.544 680.324 463.997 680.324 464.52C680.324 464.893 680.265 465.245 680.148 465.576C680.041 465.896 679.897 466.2 679.716 466.488C679.535 466.776 679.327 467.048 679.092 467.304C678.857 467.56 678.612 467.811 678.356 468.056L674.628 471.656H680.324V473H672.9V471.368ZM686.431 470.504H681.599V468.936L686.111 461.672H687.967V469.16H689.567V470.504H687.967V473H686.431V470.504ZM686.431 463.496H686.399L682.943 469.16H686.431V463.496ZM690.489 467.336C690.489 466.92 690.511 466.488 690.553 466.04C690.596 465.592 690.671 465.155 690.777 464.728C690.895 464.291 691.044 463.875 691.225 463.48C691.417 463.085 691.657 462.744 691.945 462.456C692.244 462.157 692.591 461.923 692.985 461.752C693.391 461.571 693.86 461.48 694.393 461.48C694.927 461.48 695.391 461.571 695.785 461.752C696.191 461.923 696.537 462.157 696.825 462.456C697.124 462.744 697.364 463.085 697.545 463.48C697.737 463.875 697.887 464.291 697.993 464.728C698.111 465.155 698.191 465.592 698.233 466.04C698.276 466.488 698.297 466.92 698.297 467.336C698.297 467.933 698.244 468.573 698.137 469.256C698.031 469.939 697.833 470.573 697.545 471.16C697.257 471.747 696.857 472.232 696.345 472.616C695.844 473 695.193 473.192 694.393 473.192C693.593 473.192 692.937 473 692.425 472.616C691.924 472.232 691.529 471.747 691.241 471.16C690.953 470.573 690.756 469.939 690.649 469.256C690.543 468.573 690.489 467.933 690.489 467.336ZM692.025 467.336C692.025 467.709 692.047 468.152 692.089 468.664C692.143 469.176 692.249 469.672 692.409 470.152C692.569 470.621 692.804 471.021 693.113 471.352C693.433 471.683 693.86 471.848 694.393 471.848C694.927 471.848 695.348 471.683 695.657 471.352C695.977 471.021 696.217 470.621 696.377 470.152C696.537 469.672 696.639 469.176 696.681 468.664C696.735 468.152 696.761 467.709 696.761 467.336C696.761 467.08 696.751 466.792 696.729 466.472C696.719 466.141 696.681 465.811 696.617 465.48C696.564 465.139 696.484 464.813 696.377 464.504C696.271 464.184 696.127 463.901 695.945 463.656C695.775 463.4 695.561 463.197 695.305 463.048C695.049 462.899 694.745 462.824 694.393 462.824C694.041 462.824 693.737 462.899 693.481 463.048C693.225 463.197 693.007 463.4 692.825 463.656C692.655 463.901 692.516 464.184 692.409 464.504C692.303 464.813 692.217 465.139 692.153 465.48C692.1 465.811 692.063 466.141 692.041 466.472C692.031 466.792 692.025 467.08 692.025 467.336ZM700.916 475.112H699.604L700.708 471.176H702.26L700.916 475.112ZM708.478 471.368L713.022 466.856C713.182 466.707 713.337 466.547 713.486 466.376C713.636 466.195 713.769 466.008 713.886 465.816C714.004 465.624 714.094 465.421 714.158 465.208C714.233 464.995 714.27 464.771 714.27 464.536C714.27 464.259 714.217 464.008 714.11 463.784C714.014 463.56 713.876 463.373 713.694 463.224C713.524 463.064 713.316 462.941 713.07 462.856C712.836 462.771 712.585 462.728 712.318 462.728C711.764 462.728 711.305 462.883 710.942 463.192C710.58 463.501 710.35 463.928 710.254 464.472L708.59 464.328C708.665 463.827 708.809 463.395 709.022 463.032C709.246 462.659 709.518 462.349 709.838 462.104C710.169 461.859 710.542 461.677 710.958 461.56C711.385 461.443 711.844 461.384 712.334 461.384C712.825 461.384 713.284 461.453 713.71 461.592C714.148 461.72 714.526 461.917 714.846 462.184C715.177 462.44 715.433 462.765 715.614 463.16C715.806 463.544 715.902 463.997 715.902 464.52C715.902 464.893 715.844 465.245 715.726 465.576C715.62 465.896 715.476 466.2 715.294 466.488C715.113 466.776 714.905 467.048 714.67 467.304C714.436 467.56 714.19 467.811 713.934 468.056L710.206 471.656H715.902V473H708.478V471.368ZM722.009 470.504H717.177V468.936L721.689 461.672H723.545V469.16H725.145V470.504H723.545V473H722.009V470.504ZM722.009 463.496H721.977L718.521 469.16H722.009V463.496ZM729.043 466.056H729.107C729.459 465.885 729.875 465.8 730.355 465.8C730.761 465.8 731.171 465.869 731.587 466.008C732.003 466.147 732.377 466.365 732.707 466.664C733.049 466.952 733.326 467.325 733.539 467.784C733.753 468.232 733.859 468.765 733.859 469.384C733.859 470.013 733.753 470.568 733.539 471.048C733.337 471.517 733.059 471.912 732.707 472.232C732.355 472.552 731.945 472.792 731.475 472.952C731.006 473.112 730.505 473.192 729.971 473.192C729.438 473.192 728.937 473.107 728.467 472.936C727.998 472.765 727.587 472.52 727.235 472.2C726.883 471.88 726.601 471.496 726.387 471.048C726.185 470.6 726.083 470.099 726.083 469.544C726.083 469.192 726.11 468.872 726.163 468.584C726.217 468.296 726.291 468.024 726.387 467.768C726.494 467.501 726.617 467.245 726.755 467C726.894 466.744 727.049 466.477 727.219 466.2L730.083 461.672H731.891L729.043 466.056ZM727.619 469.496C727.619 469.837 727.673 470.152 727.779 470.44C727.897 470.728 728.057 470.979 728.259 471.192C728.473 471.395 728.723 471.555 729.011 471.672C729.299 471.789 729.619 471.848 729.971 471.848C730.323 471.848 730.643 471.789 730.931 471.672C731.219 471.555 731.465 471.395 731.667 471.192C731.881 470.979 732.041 470.728 732.147 470.44C732.265 470.152 732.323 469.837 732.323 469.496C732.323 469.155 732.265 468.84 732.147 468.552C732.041 468.264 731.881 468.019 731.667 467.816C731.465 467.603 731.219 467.437 730.931 467.32C730.643 467.203 730.323 467.144 729.971 467.144C729.619 467.144 729.299 467.203 729.011 467.32C728.723 467.437 728.473 467.603 728.259 467.816C728.057 468.019 727.897 468.264 727.779 468.552C727.673 468.84 727.619 469.155 727.619 469.496ZM734.798 474.952C735.139 474.408 735.438 473.885 735.694 473.384C735.95 472.883 736.163 472.376 736.334 471.864C736.505 471.341 736.633 470.803 736.718 470.248C736.803 469.693 736.846 469.096 736.846 468.456C736.846 467.283 736.675 466.147 736.334 465.048C735.993 463.949 735.481 462.931 734.798 461.992L735.758 461.352C736.494 462.355 737.065 463.459 737.47 464.664C737.886 465.869 738.094 467.133 738.094 468.456C738.094 469.683 737.897 470.909 737.502 472.136C737.107 473.363 736.526 474.504 735.758 475.56L734.798 474.952Z" fill="black"/>
<rect x="645" y="317" width="80" height="80" rx="40" fill="#EAF0F6"/>
<path opacity="0.7" d="M366.875 437.12C366.555 436.704 366.15 436.384 365.659 436.16C365.169 435.936 364.662 435.824 364.139 435.824C363.499 435.824 362.918 435.947 362.395 436.192C361.883 436.427 361.441 436.752 361.067 437.168C360.705 437.584 360.422 438.075 360.219 438.64C360.017 439.195 359.915 439.792 359.915 440.432C359.915 441.029 360.011 441.595 360.203 442.128C360.395 442.661 360.673 443.131 361.035 443.536C361.398 443.941 361.841 444.261 362.363 444.496C362.886 444.731 363.478 444.848 364.139 444.848C364.79 444.848 365.361 444.715 365.851 444.448C366.342 444.181 366.758 443.808 367.099 443.328L368.395 444.304C368.31 444.421 368.161 444.592 367.947 444.816C367.734 445.029 367.451 445.248 367.099 445.472C366.747 445.685 366.321 445.872 365.819 446.032C365.329 446.203 364.758 446.288 364.107 446.288C363.211 446.288 362.401 446.117 361.675 445.776C360.961 445.435 360.347 444.987 359.835 444.432C359.334 443.877 358.95 443.253 358.683 442.56C358.417 441.856 358.283 441.147 358.283 440.432C358.283 439.557 358.427 438.752 358.715 438.016C359.003 437.269 359.403 436.629 359.915 436.096C360.438 435.552 361.062 435.131 361.787 434.832C362.513 434.533 363.313 434.384 364.187 434.384C364.934 434.384 365.665 434.528 366.379 434.816C367.105 435.104 367.697 435.547 368.155 436.144L366.875 437.12ZM370.141 434.672H372.429L376.029 443.248H376.093L379.661 434.672H381.949V446H380.413V436.688H380.381L376.557 446H375.533L371.709 436.688H371.677V446H370.141V434.672ZM387.425 441.168L383.137 434.672H385.105L388.193 439.648L391.377 434.672H393.249L388.961 441.168V446H387.425V441.168ZM394.55 434.672H396.086V439.568H396.214L401.222 434.672H403.366L397.894 439.904L403.734 446H401.494L396.214 440.336H396.086V446H394.55V434.672ZM344.533 461.96C344.191 462.504 343.893 463.027 343.637 463.528C343.381 464.029 343.167 464.541 342.997 465.064C342.826 465.576 342.698 466.109 342.613 466.664C342.527 467.219 342.485 467.816 342.485 468.456C342.485 469.629 342.655 470.765 342.997 471.864C343.338 472.963 343.85 473.981 344.533 474.92L343.573 475.56C342.837 474.557 342.261 473.453 341.845 472.248C341.439 471.043 341.237 469.779 341.237 468.456C341.237 467.229 341.434 466.003 341.829 464.776C342.223 463.549 342.805 462.408 343.573 461.352L344.533 461.96ZM351.066 463.016H345.594V461.672H352.714V462.984L348.202 473H346.474L351.066 463.016ZM359.189 468.616H359.125C358.773 468.787 358.357 468.872 357.877 468.872C357.471 468.872 357.061 468.803 356.645 468.664C356.229 468.525 355.85 468.312 355.509 468.024C355.178 467.725 354.906 467.352 354.693 466.904C354.479 466.445 354.373 465.907 354.373 465.288C354.373 464.669 354.474 464.125 354.677 463.656C354.89 463.176 355.173 462.776 355.525 462.456C355.877 462.136 356.287 461.896 356.757 461.736C357.226 461.565 357.727 461.48 358.261 461.48C358.794 461.48 359.295 461.565 359.765 461.736C360.234 461.907 360.645 462.152 360.997 462.472C361.349 462.792 361.626 463.176 361.829 463.624C362.042 464.072 362.149 464.573 362.149 465.128C362.149 465.48 362.122 465.8 362.069 466.088C362.015 466.376 361.935 466.653 361.829 466.92C361.733 467.176 361.615 467.432 361.477 467.688C361.338 467.944 361.183 468.205 361.013 468.472L358.149 473H356.341L359.189 468.616ZM360.613 465.176C360.613 464.835 360.554 464.52 360.437 464.232C360.33 463.944 360.17 463.699 359.957 463.496C359.754 463.283 359.509 463.117 359.221 463C358.933 462.883 358.613 462.824 358.261 462.824C357.909 462.824 357.589 462.883 357.301 463C357.013 463.117 356.762 463.283 356.549 463.496C356.346 463.699 356.186 463.944 356.069 464.232C355.962 464.52 355.909 464.835 355.909 465.176C355.909 465.517 355.962 465.832 356.069 466.12C356.186 466.408 356.346 466.659 356.549 466.872C356.762 467.075 357.013 467.235 357.301 467.352C357.589 467.469 357.909 467.528 358.261 467.528C358.613 467.528 358.933 467.469 359.221 467.352C359.509 467.235 359.754 467.075 359.957 466.872C360.17 466.659 360.33 466.408 360.437 466.12C360.554 465.832 360.613 465.517 360.613 465.176ZM364.783 475.112H363.471L364.575 471.176H366.127L364.783 475.112ZM377.753 463.016H372.281V461.672H379.401V462.984L374.889 473H373.161L377.753 463.016ZM384.948 473.192C384.436 473.192 383.951 473.117 383.492 472.968C383.044 472.808 382.655 472.579 382.324 472.28C381.993 471.981 381.732 471.619 381.54 471.192C381.348 470.765 381.252 470.285 381.252 469.752C381.252 469.4 381.305 469.075 381.412 468.776C381.529 468.477 381.684 468.211 381.876 467.976C382.068 467.731 382.292 467.528 382.548 467.368C382.815 467.197 383.103 467.069 383.412 466.984V466.936C383.199 466.883 382.985 466.787 382.772 466.648C382.559 466.509 382.367 466.333 382.196 466.12C382.036 465.907 381.903 465.651 381.796 465.352C381.689 465.043 381.636 464.691 381.636 464.296C381.636 463.869 381.721 463.485 381.892 463.144C382.073 462.792 382.313 462.493 382.612 462.248C382.921 462.003 383.273 461.816 383.668 461.688C384.073 461.549 384.5 461.48 384.948 461.48C385.396 461.48 385.817 461.549 386.212 461.688C386.617 461.816 386.969 462.003 387.268 462.248C387.577 462.493 387.817 462.792 387.988 463.144C388.169 463.485 388.26 463.869 388.26 464.296C388.26 464.691 388.207 465.043 388.1 465.352C387.993 465.651 387.855 465.907 387.684 466.12C387.524 466.333 387.337 466.509 387.124 466.648C386.911 466.787 386.697 466.883 386.484 466.936V466.984C386.793 467.069 387.076 467.197 387.332 467.368C387.599 467.528 387.828 467.731 388.02 467.976C388.212 468.211 388.361 468.477 388.468 468.776C388.585 469.075 388.644 469.4 388.644 469.752C388.644 470.285 388.548 470.765 388.356 471.192C388.164 471.619 387.903 471.981 387.572 472.28C387.241 472.579 386.847 472.808 386.388 472.968C385.94 473.117 385.46 473.192 384.948 473.192ZM383.172 464.52C383.172 464.744 383.209 464.963 383.284 465.176C383.369 465.389 383.487 465.581 383.636 465.752C383.785 465.912 383.967 466.045 384.18 466.152C384.404 466.259 384.66 466.312 384.948 466.312C385.247 466.312 385.503 466.264 385.716 466.168C385.94 466.061 386.127 465.928 386.276 465.768C386.425 465.597 386.537 465.405 386.612 465.192C386.687 464.979 386.724 464.755 386.724 464.52C386.724 463.997 386.559 463.571 386.228 463.24C385.908 462.899 385.481 462.728 384.948 462.728C384.457 462.728 384.036 462.893 383.684 463.224C383.343 463.555 383.172 463.987 383.172 464.52ZM384.948 471.848C385.588 471.848 386.105 471.656 386.5 471.272C386.905 470.877 387.108 470.371 387.108 469.752C387.108 469.411 387.049 469.112 386.932 468.856C386.825 468.589 386.671 468.371 386.468 468.2C386.276 468.019 386.047 467.885 385.78 467.8C385.524 467.704 385.247 467.656 384.948 467.656C384.319 467.667 383.801 467.869 383.396 468.264C382.991 468.648 382.788 469.144 382.788 469.752C382.788 470.083 382.847 470.381 382.964 470.648C383.081 470.904 383.236 471.123 383.428 471.304C383.631 471.475 383.86 471.608 384.116 471.704C384.383 471.8 384.66 471.848 384.948 471.848ZM391.471 475.112H390.159L391.263 471.176H392.815L391.471 475.112ZM402.745 473.192C402.233 473.192 401.748 473.117 401.289 472.968C400.841 472.808 400.452 472.579 400.121 472.28C399.79 471.981 399.529 471.619 399.337 471.192C399.145 470.765 399.049 470.285 399.049 469.752C399.049 469.4 399.102 469.075 399.209 468.776C399.326 468.477 399.481 468.211 399.673 467.976C399.865 467.731 400.089 467.528 400.345 467.368C400.612 467.197 400.9 467.069 401.209 466.984V466.936C400.996 466.883 400.782 466.787 400.569 466.648C400.356 466.509 400.164 466.333 399.993 466.12C399.833 465.907 399.7 465.651 399.593 465.352C399.486 465.043 399.433 464.691 399.433 464.296C399.433 463.869 399.518 463.485 399.689 463.144C399.87 462.792 400.11 462.493 400.409 462.248C400.718 462.003 401.07 461.816 401.465 461.688C401.87 461.549 402.297 461.48 402.745 461.48C403.193 461.48 403.614 461.549 404.009 461.688C404.414 461.816 404.766 462.003 405.065 462.248C405.374 462.493 405.614 462.792 405.785 463.144C405.966 463.485 406.057 463.869 406.057 464.296C406.057 464.691 406.004 465.043 405.897 465.352C405.79 465.651 405.652 465.907 405.481 466.12C405.321 466.333 405.134 466.509 404.921 466.648C404.708 466.787 404.494 466.883 404.281 466.936V466.984C404.59 467.069 404.873 467.197 405.129 467.368C405.396 467.528 405.625 467.731 405.817 467.976C406.009 468.211 406.158 468.477 406.265 468.776C406.382 469.075 406.441 469.4 406.441 469.752C406.441 470.285 406.345 470.765 406.153 471.192C405.961 471.619 405.7 471.981 405.369 472.28C405.038 472.579 404.644 472.808 404.185 472.968C403.737 473.117 403.257 473.192 402.745 473.192ZM400.969 464.52C400.969 464.744 401.006 464.963 401.081 465.176C401.166 465.389 401.284 465.581 401.433 465.752C401.582 465.912 401.764 466.045 401.977 466.152C402.201 466.259 402.457 466.312 402.745 466.312C403.044 466.312 403.3 466.264 403.513 466.168C403.737 466.061 403.924 465.928 404.073 465.768C404.222 465.597 404.334 465.405 404.409 465.192C404.484 464.979 404.521 464.755 404.521 464.52C404.521 463.997 404.356 463.571 404.025 463.24C403.705 462.899 403.278 462.728 402.745 462.728C402.254 462.728 401.833 462.893 401.481 463.224C401.14 463.555 400.969 463.987 400.969 464.52ZM402.745 471.848C403.385 471.848 403.902 471.656 404.297 471.272C404.702 470.877 404.905 470.371 404.905 469.752C404.905 469.411 404.846 469.112 404.729 468.856C404.622 468.589 404.468 468.371 404.265 468.2C404.073 468.019 403.844 467.885 403.577 467.8C403.321 467.704 403.044 467.656 402.745 467.656C402.116 467.667 401.598 467.869 401.193 468.264C400.788 468.648 400.585 469.144 400.585 469.752C400.585 470.083 400.644 470.381 400.761 470.648C400.878 470.904 401.033 471.123 401.225 471.304C401.428 471.475 401.657 471.608 401.913 471.704C402.18 471.8 402.457 471.848 402.745 471.848ZM410.708 466.056H410.772C411.124 465.885 411.54 465.8 412.02 465.8C412.425 465.8 412.836 465.869 413.252 466.008C413.668 466.147 414.041 466.365 414.372 466.664C414.713 466.952 414.99 467.325 415.204 467.784C415.417 468.232 415.524 468.765 415.524 469.384C415.524 470.013 415.417 470.568 415.204 471.048C415.001 471.517 414.724 471.912 414.372 472.232C414.02 472.552 413.609 472.792 413.14 472.952C412.67 473.112 412.169 473.192 411.636 473.192C411.102 473.192 410.601 473.107 410.132 472.936C409.662 472.765 409.252 472.52 408.9 472.2C408.548 471.88 408.265 471.496 408.052 471.048C407.849 470.6 407.748 470.099 407.748 469.544C407.748 469.192 407.774 468.872 407.828 468.584C407.881 468.296 407.956 468.024 408.052 467.768C408.158 467.501 408.281 467.245 408.42 467C408.558 466.744 408.713 466.477 408.884 466.2L411.748 461.672H413.556L410.708 466.056ZM409.284 469.496C409.284 469.837 409.337 470.152 409.444 470.44C409.561 470.728 409.721 470.979 409.924 471.192C410.137 471.395 410.388 471.555 410.676 471.672C410.964 471.789 411.284 471.848 411.636 471.848C411.988 471.848 412.308 471.789 412.596 471.672C412.884 471.555 413.129 471.395 413.332 471.192C413.545 470.979 413.705 470.728 413.812 470.44C413.929 470.152 413.988 469.837 413.988 469.496C413.988 469.155 413.929 468.84 413.812 468.552C413.705 468.264 413.545 468.019 413.332 467.816C413.129 467.603 412.884 467.437 412.596 467.32C412.308 467.203 411.988 467.144 411.636 467.144C411.284 467.144 410.964 467.203 410.676 467.32C410.388 467.437 410.137 467.603 409.924 467.816C409.721 468.019 409.561 468.264 409.444 468.552C409.337 468.84 409.284 469.155 409.284 469.496ZM416.462 474.952C416.803 474.408 417.102 473.885 417.358 473.384C417.614 472.883 417.827 472.376 417.998 471.864C418.169 471.341 418.297 470.803 418.382 470.248C418.467 469.693 418.51 469.096 418.51 468.456C418.51 467.283 418.339 466.147 417.998 465.048C417.657 463.949 417.145 462.931 416.462 461.992L417.422 461.352C418.158 462.355 418.729 463.459 419.134 464.664C419.55 465.869 419.758 467.133 419.758 468.456C419.758 469.683 419.561 470.909 419.166 472.136C418.771 473.363 418.19 474.504 417.422 475.56L416.462 474.952Z" fill="black"/>
<rect x="340" y="317" width="80" height="80" rx="40" fill="#4F4E56"/>
<path opacity="0.7" d="M61.8753 437.12C61.5553 436.704 61.1499 436.384 60.6593 436.16C60.1686 435.936 59.6619 435.824 59.1393 435.824C58.4993 435.824 57.9179 435.947 57.3953 436.192C56.8833 436.427 56.4406 436.752 56.0673 437.168C55.7046 437.584 55.4219 438.075 55.2193 438.64C55.0166 439.195 54.9153 439.792 54.9153 440.432C54.9153 441.029 55.0113 441.595 55.2033 442.128C55.3953 442.661 55.6726 443.131 56.0353 443.536C56.3979 443.941 56.8406 444.261 57.3633 444.496C57.8859 444.731 58.4779 444.848 59.1393 444.848C59.7899 444.848 60.3606 444.715 60.8513 444.448C61.3419 444.181 61.7579 443.808 62.0993 443.328L63.3953 444.304C63.3099 444.421 63.1606 444.592 62.9473 444.816C62.7339 445.029 62.4513 445.248 62.0993 445.472C61.7473 445.685 61.3206 445.872 60.8193 446.032C60.3286 446.203 59.7579 446.288 59.1073 446.288C58.2113 446.288 57.4006 446.117 56.6753 445.776C55.9606 445.435 55.3473 444.987 54.8353 444.432C54.3339 443.877 53.9499 443.253 53.6833 442.56C53.4166 441.856 53.2833 441.147 53.2833 440.432C53.2833 439.557 53.4273 438.752 53.7153 438.016C54.0033 437.269 54.4033 436.629 54.9153 436.096C55.4379 435.552 56.0619 435.131 56.7873 434.832C57.5126 434.533 58.3126 434.384 59.1873 434.384C59.9339 434.384 60.6646 434.528 61.3793 434.816C62.1046 435.104 62.6966 435.547 63.1553 436.144L61.8753 437.12ZM65.1409 434.672H67.4289L71.0289 443.248H71.0929L74.6609 434.672H76.9489V446H75.4129V436.688H75.3809L71.5569 446H70.5329L66.7089 436.688H66.6769V446H65.1409V434.672ZM82.4249 441.168L78.1369 434.672H80.1049L83.1929 439.648L86.3769 434.672H88.2489L83.9609 441.168V446H82.4249V441.168ZM89.5498 434.672H91.0858V439.568H91.2138L96.2218 434.672H98.3658L92.8938 439.904L98.7338 446H96.4938L91.2138 440.336H91.0858V446H89.5498V434.672ZM35.0874 461.96C34.7461 462.504 34.4474 463.027 34.1914 463.528C33.9354 464.029 33.7221 464.541 33.5514 465.064C33.3808 465.576 33.2528 466.109 33.1674 466.664C33.0821 467.219 33.0394 467.816 33.0394 468.456C33.0394 469.629 33.2101 470.765 33.5514 471.864C33.8928 472.963 34.4048 473.981 35.0874 474.92L34.1274 475.56C33.3914 474.557 32.8154 473.453 32.3994 472.248C31.9941 471.043 31.7914 469.779 31.7914 468.456C31.7914 467.229 31.9888 466.003 32.3834 464.776C32.7781 463.549 33.3594 462.408 34.1274 461.352L35.0874 461.96ZM38.9966 466.056H39.0606C39.4126 465.885 39.8286 465.8 40.3086 465.8C40.7139 465.8 41.1246 465.869 41.5406 466.008C41.9566 466.147 42.3299 466.365 42.6606 466.664C43.0019 466.952 43.2792 467.325 43.4926 467.784C43.7059 468.232 43.8126 468.765 43.8126 469.384C43.8126 470.013 43.7059 470.568 43.4926 471.048C43.2899 471.517 43.0126 471.912 42.6606 472.232C42.3086 472.552 41.8979 472.792 41.4286 472.952C40.9592 473.112 40.4579 473.192 39.9246 473.192C39.3912 473.192 38.8899 473.107 38.4206 472.936C37.9512 472.765 37.5406 472.52 37.1886 472.2C36.8366 471.88 36.5539 471.496 36.3406 471.048C36.1379 470.6 36.0366 470.099 36.0366 469.544C36.0366 469.192 36.0632 468.872 36.1166 468.584C36.1699 468.296 36.2446 468.024 36.3406 467.768C36.4472 467.501 36.5699 467.245 36.7086 467C36.8472 466.744 37.0019 466.477 37.1726 466.2L40.0366 461.672H41.8446L38.9966 466.056ZM37.5726 469.496C37.5726 469.837 37.6259 470.152 37.7326 470.44C37.8499 470.728 38.0099 470.979 38.2126 471.192C38.4259 471.395 38.6766 471.555 38.9646 471.672C39.2526 471.789 39.5726 471.848 39.9246 471.848C40.2766 471.848 40.5966 471.789 40.8846 471.672C41.1726 471.555 41.4179 471.395 41.6206 471.192C41.8339 470.979 41.9939 470.728 42.1006 470.44C42.2179 470.152 42.2766 469.837 42.2766 469.496C42.2766 469.155 42.2179 468.84 42.1006 468.552C41.9939 468.264 41.8339 468.019 41.6206 467.816C41.4179 467.603 41.1726 467.437 40.8846 467.32C40.5966 467.203 40.2766 467.144 39.9246 467.144C39.5726 467.144 39.2526 467.203 38.9646 467.32C38.6766 467.437 38.4259 467.603 38.2126 467.816C38.0099 468.019 37.8499 468.264 37.7326 468.552C37.6259 468.84 37.5726 469.155 37.5726 469.496ZM44.9112 467.336C44.9112 466.92 44.9325 466.488 44.9752 466.04C45.0179 465.592 45.0925 465.155 45.1992 464.728C45.3165 464.291 45.4659 463.875 45.6472 463.48C45.8392 463.085 46.0792 462.744 46.3672 462.456C46.6659 462.157 47.0125 461.923 47.4072 461.752C47.8125 461.571 48.2819 461.48 48.8152 461.48C49.3485 461.48 49.8125 461.571 50.2072 461.752C50.6125 461.923 50.9592 462.157 51.2472 462.456C51.5459 462.744 51.7859 463.085 51.9672 463.48C52.1592 463.875 52.3085 464.291 52.4152 464.728C52.5325 465.155 52.6125 465.592 52.6552 466.04C52.6979 466.488 52.7192 466.92 52.7192 467.336C52.7192 467.933 52.6659 468.573 52.5592 469.256C52.4525 469.939 52.2552 470.573 51.9672 471.16C51.6792 471.747 51.2792 472.232 50.7672 472.616C50.2659 473 49.6152 473.192 48.8152 473.192C48.0152 473.192 47.3592 473 46.8472 472.616C46.3459 472.232 45.9512 471.747 45.6632 471.16C45.3752 470.573 45.1779 469.939 45.0712 469.256C44.9645 468.573 44.9112 467.933 44.9112 467.336ZM46.4472 467.336C46.4472 467.709 46.4685 468.152 46.5112 468.664C46.5645 469.176 46.6712 469.672 46.8312 470.152C46.9912 470.621 47.2259 471.021 47.5352 471.352C47.8552 471.683 48.2819 471.848 48.8152 471.848C49.3485 471.848 49.7699 471.683 50.0792 471.352C50.3992 471.021 50.6392 470.621 50.7992 470.152C50.9592 469.672 51.0605 469.176 51.1032 468.664C51.1565 468.152 51.1832 467.709 51.1832 467.336C51.1832 467.08 51.1725 466.792 51.1512 466.472C51.1405 466.141 51.1032 465.811 51.0392 465.48C50.9859 465.139 50.9059 464.813 50.7992 464.504C50.6925 464.184 50.5485 463.901 50.3672 463.656C50.1965 463.4 49.9832 463.197 49.7272 463.048C49.4712 462.899 49.1672 462.824 48.8152 462.824C48.4632 462.824 48.1592 462.899 47.9032 463.048C47.6472 463.197 47.4285 463.4 47.2472 463.656C47.0765 463.901 46.9379 464.184 46.8312 464.504C46.7245 464.813 46.6392 465.139 46.5752 465.48C46.5219 465.811 46.4845 466.141 46.4632 466.472C46.4525 466.792 46.4472 467.08 46.4472 467.336ZM55.3378 475.112H54.0258L55.1298 471.176H56.6818L55.3378 475.112ZM66.6121 473.192C66.1001 473.192 65.6147 473.117 65.1561 472.968C64.7081 472.808 64.3187 472.579 63.9881 472.28C63.6574 471.981 63.3961 471.619 63.2041 471.192C63.0121 470.765 62.9161 470.285 62.9161 469.752C62.9161 469.4 62.9694 469.075 63.0761 468.776C63.1934 468.477 63.3481 468.211 63.5401 467.976C63.7321 467.731 63.9561 467.528 64.2121 467.368C64.4787 467.197 64.7667 467.069 65.0761 466.984V466.936C64.8627 466.883 64.6494 466.787 64.4361 466.648C64.2227 466.509 64.0307 466.333 63.8601 466.12C63.7001 465.907 63.5667 465.651 63.4601 465.352C63.3534 465.043 63.3001 464.691 63.3001 464.296C63.3001 463.869 63.3854 463.485 63.5561 463.144C63.7374 462.792 63.9774 462.493 64.2761 462.248C64.5854 462.003 64.9374 461.816 65.3321 461.688C65.7374 461.549 66.1641 461.48 66.6121 461.48C67.0601 461.48 67.4814 461.549 67.8761 461.688C68.2814 461.816 68.6334 462.003 68.9321 462.248C69.2414 462.493 69.4814 462.792 69.6521 463.144C69.8334 463.485 69.9241 463.869 69.9241 464.296C69.9241 464.691 69.8707 465.043 69.7641 465.352C69.6574 465.651 69.5187 465.907 69.3481 466.12C69.1881 466.333 69.0014 466.509 68.7881 466.648C68.5747 466.787 68.3614 466.883 68.1481 466.936V466.984C68.4574 467.069 68.7401 467.197 68.9961 467.368C69.2627 467.528 69.4921 467.731 69.6841 467.976C69.8761 468.211 70.0254 468.477 70.1321 468.776C70.2494 469.075 70.3081 469.4 70.3081 469.752C70.3081 470.285 70.2121 470.765 70.0201 471.192C69.8281 471.619 69.5667 471.981 69.2361 472.28C68.9054 472.579 68.5107 472.808 68.0521 472.968C67.6041 473.117 67.1241 473.192 66.6121 473.192ZM64.8361 464.52C64.8361 464.744 64.8734 464.963 64.9481 465.176C65.0334 465.389 65.1507 465.581 65.3001 465.752C65.4494 465.912 65.6307 466.045 65.8441 466.152C66.0681 466.259 66.3241 466.312 66.6121 466.312C66.9107 466.312 67.1667 466.264 67.3801 466.168C67.6041 466.061 67.7907 465.928 67.9401 465.768C68.0894 465.597 68.2014 465.405 68.2761 465.192C68.3507 464.979 68.3881 464.755 68.3881 464.52C68.3881 463.997 68.2227 463.571 67.8921 463.24C67.5721 462.899 67.1454 462.728 66.6121 462.728C66.1214 462.728 65.7001 462.893 65.3481 463.224C65.0067 463.555 64.8361 463.987 64.8361 464.52ZM66.6121 471.848C67.2521 471.848 67.7694 471.656 68.1641 471.272C68.5694 470.877 68.7721 470.371 68.7721 469.752C68.7721 469.411 68.7134 469.112 68.5961 468.856C68.4894 468.589 68.3347 468.371 68.1321 468.2C67.9401 468.019 67.7107 467.885 67.4441 467.8C67.1881 467.704 66.9107 467.656 66.6121 467.656C65.9827 467.667 65.4654 467.869 65.0601 468.264C64.6547 468.648 64.4521 469.144 64.4521 469.752C64.4521 470.083 64.5107 470.381 64.6281 470.648C64.7454 470.904 64.9001 471.123 65.0921 471.304C65.2947 471.475 65.5241 471.608 65.7801 471.704C66.0467 471.8 66.3241 471.848 66.6121 471.848ZM76.4307 468.616H76.3667C76.0147 468.787 75.5987 468.872 75.1187 468.872C74.7134 468.872 74.3027 468.803 73.8867 468.664C73.4707 468.525 73.092 468.312 72.7507 468.024C72.42 467.725 72.148 467.352 71.9347 466.904C71.7214 466.445 71.6147 465.907 71.6147 465.288C71.6147 464.669 71.716 464.125 71.9187 463.656C72.132 463.176 72.4147 462.776 72.7667 462.456C73.1187 462.136 73.5294 461.896 73.9987 461.736C74.468 461.565 74.9694 461.48 75.5027 461.48C76.036 461.48 76.5374 461.565 77.0067 461.736C77.476 461.907 77.8867 462.152 78.2387 462.472C78.5907 462.792 78.868 463.176 79.0707 463.624C79.284 464.072 79.3907 464.573 79.3907 465.128C79.3907 465.48 79.364 465.8 79.3107 466.088C79.2574 466.376 79.1774 466.653 79.0707 466.92C78.9747 467.176 78.8574 467.432 78.7187 467.688C78.58 467.944 78.4254 468.205 78.2547 468.472L75.3907 473H73.5827L76.4307 468.616ZM77.8547 465.176C77.8547 464.835 77.796 464.52 77.6787 464.232C77.572 463.944 77.412 463.699 77.1987 463.496C76.996 463.283 76.7507 463.117 76.4627 463C76.1747 462.883 75.8547 462.824 75.5027 462.824C75.1507 462.824 74.8307 462.883 74.5427 463C74.2547 463.117 74.004 463.283 73.7907 463.496C73.588 463.699 73.428 463.944 73.3107 464.232C73.204 464.52 73.1507 464.835 73.1507 465.176C73.1507 465.517 73.204 465.832 73.3107 466.12C73.428 466.408 73.588 466.659 73.7907 466.872C74.004 467.075 74.2547 467.235 74.5427 467.352C74.8307 467.469 75.1507 467.528 75.5027 467.528C75.8547 467.528 76.1747 467.469 76.4627 467.352C76.7507 467.235 76.996 467.075 77.1987 466.872C77.412 466.659 77.572 466.408 77.6787 466.12C77.796 465.832 77.8547 465.517 77.8547 465.176ZM82.0253 475.112H80.7133L81.8173 471.176H83.3693L82.0253 475.112ZM89.5876 471.368L94.1316 466.856C94.2916 466.707 94.4462 466.547 94.5956 466.376C94.7449 466.195 94.8782 466.008 94.9956 465.816C95.1129 465.624 95.2036 465.421 95.2676 465.208C95.3422 464.995 95.3796 464.771 95.3796 464.536C95.3796 464.259 95.3262 464.008 95.2196 463.784C95.1236 463.56 94.9849 463.373 94.8036 463.224C94.6329 463.064 94.4249 462.941 94.1796 462.856C93.9449 462.771 93.6942 462.728 93.4276 462.728C92.8729 462.728 92.4142 462.883 92.0516 463.192C91.6889 463.501 91.4596 463.928 91.3636 464.472L89.6996 464.328C89.7742 463.827 89.9182 463.395 90.1316 463.032C90.3556 462.659 90.6276 462.349 90.9476 462.104C91.2782 461.859 91.6516 461.677 92.0676 461.56C92.4942 461.443 92.9529 461.384 93.4436 461.384C93.9342 461.384 94.3929 461.453 94.8196 461.592C95.2569 461.72 95.6356 461.917 95.9556 462.184C96.2862 462.44 96.5422 462.765 96.7236 463.16C96.9156 463.544 97.0116 463.997 97.0116 464.52C97.0116 464.893 96.9529 465.245 96.8356 465.576C96.7289 465.896 96.5849 466.2 96.4036 466.488C96.2222 466.776 96.0142 467.048 95.7796 467.304C95.5449 467.56 95.2996 467.811 95.0436 468.056L91.3156 471.656H97.0116V473H89.5876V471.368ZM102.062 463.432L99.9822 465.352L99.0862 464.28L102.238 461.672H103.598V473H102.062V463.432ZM108.985 470.232C109.166 470.776 109.406 471.181 109.705 471.448C110.014 471.715 110.467 471.848 111.065 471.848C111.363 471.848 111.641 471.8 111.897 471.704C112.163 471.597 112.398 471.459 112.601 471.288C112.803 471.107 112.963 470.893 113.081 470.648C113.198 470.392 113.257 470.109 113.257 469.8C113.257 469.331 113.155 468.957 112.953 468.68C112.761 468.392 112.51 468.179 112.201 468.04C111.891 467.891 111.55 467.795 111.177 467.752C110.803 467.709 110.435 467.688 110.073 467.688V466.344C110.659 466.344 111.139 466.307 111.513 466.232C111.886 466.147 112.179 466.029 112.393 465.88C112.606 465.731 112.755 465.544 112.841 465.32C112.926 465.096 112.969 464.845 112.969 464.568C112.969 463.96 112.787 463.501 112.425 463.192C112.062 462.883 111.609 462.728 111.065 462.728C110.649 462.728 110.27 462.851 109.929 463.096C109.598 463.331 109.347 463.645 109.177 464.04L107.609 463.512C107.907 462.787 108.361 462.253 108.969 461.912C109.587 461.56 110.275 461.384 111.033 461.384C111.491 461.384 111.929 461.448 112.345 461.576C112.771 461.693 113.145 461.88 113.465 462.136C113.785 462.392 114.035 462.717 114.217 463.112C114.409 463.496 114.505 463.949 114.505 464.472C114.505 465.069 114.323 465.603 113.961 466.072C113.609 466.541 113.145 466.861 112.569 467.032V467.064C112.921 467.128 113.235 467.245 113.513 467.416C113.79 467.587 114.025 467.8 114.217 468.056C114.409 468.312 114.553 468.6 114.649 468.92C114.745 469.229 114.793 469.56 114.793 469.912C114.793 470.456 114.686 470.936 114.473 471.352C114.27 471.757 113.993 472.099 113.641 472.376C113.299 472.643 112.899 472.845 112.441 472.984C111.993 473.123 111.518 473.192 111.017 473.192C110.153 473.192 109.39 472.995 108.729 472.6C108.078 472.205 107.625 471.581 107.369 470.728L108.985 470.232ZM115.907 474.952C116.249 474.408 116.547 473.885 116.803 473.384C117.059 472.883 117.273 472.376 117.443 471.864C117.614 471.341 117.742 470.803 117.827 470.248C117.913 469.693 117.955 469.096 117.955 468.456C117.955 467.283 117.785 466.147 117.443 465.048C117.102 463.949 116.59 462.931 115.907 461.992L116.867 461.352C117.603 462.355 118.174 463.459 118.579 464.664C118.995 465.869 119.203 467.133 119.203 468.456C119.203 469.683 119.006 470.909 118.611 472.136C118.217 473.363 117.635 474.504 116.867 475.56L115.907 474.952Z" fill="black"/>
<rect x="35" y="317" width="80" height="80" rx="40" fill="#3C59D5"/>
<path opacity="0.7" d="M667.969 191.9C667.569 191.38 667.062 190.98 666.449 190.7C665.836 190.42 665.202 190.28 664.549 190.28C663.749 190.28 663.022 190.433 662.369 190.74C661.729 191.033 661.176 191.44 660.709 191.96C660.256 192.48 659.902 193.093 659.649 193.8C659.396 194.493 659.269 195.24 659.269 196.04C659.269 196.787 659.389 197.493 659.629 198.16C659.869 198.827 660.216 199.413 660.669 199.92C661.122 200.427 661.676 200.827 662.329 201.12C662.982 201.413 663.722 201.56 664.549 201.56C665.362 201.56 666.076 201.393 666.689 201.06C667.302 200.727 667.822 200.26 668.249 199.66L669.869 200.88C669.762 201.027 669.576 201.24 669.309 201.52C669.042 201.787 668.689 202.06 668.249 202.34C667.809 202.607 667.276 202.84 666.649 203.04C666.036 203.253 665.322 203.36 664.509 203.36C663.389 203.36 662.376 203.147 661.469 202.72C660.576 202.293 659.809 201.733 659.169 201.04C658.542 200.347 658.062 199.567 657.729 198.7C657.396 197.82 657.229 196.933 657.229 196.04C657.229 194.947 657.409 193.94 657.769 193.02C658.129 192.087 658.629 191.287 659.269 190.62C659.922 189.94 660.702 189.413 661.609 189.04C662.516 188.667 663.516 188.48 664.609 188.48C665.542 188.48 666.456 188.66 667.349 189.02C668.256 189.38 668.996 189.933 669.569 190.68L667.969 191.9ZM672.051 188.84H674.911L679.411 199.56H679.491L683.951 188.84H686.811V203H684.891V191.36H684.851L680.071 203H678.791L674.011 191.36H673.971V203H672.051V188.84ZM693.656 196.96L688.296 188.84H690.756L694.616 195.06L698.596 188.84H700.936L695.576 196.96V203H693.656V196.96ZM702.562 188.84H704.482V194.96H704.642L710.902 188.84H713.582L706.742 195.38L714.042 203H711.242L704.642 195.92H704.482V203H702.562V188.84ZM623.371 221.2C622.944 221.88 622.571 222.533 622.251 223.16C621.931 223.787 621.664 224.427 621.451 225.08C621.238 225.72 621.078 226.387 620.971 227.08C620.864 227.773 620.811 228.52 620.811 229.32C620.811 230.787 621.024 232.207 621.451 233.58C621.878 234.953 622.518 236.227 623.371 237.4L622.171 238.2C621.251 236.947 620.531 235.567 620.011 234.06C619.504 232.553 619.251 230.973 619.251 229.32C619.251 227.787 619.498 226.253 619.991 224.72C620.484 223.187 621.211 221.76 622.171 220.44L623.371 221.2ZM624.777 232.96L630.457 227.32C630.657 227.133 630.851 226.933 631.037 226.72C631.224 226.493 631.391 226.26 631.537 226.02C631.684 225.78 631.797 225.527 631.877 225.26C631.971 224.993 632.017 224.713 632.017 224.42C632.017 224.073 631.951 223.76 631.817 223.48C631.697 223.2 631.524 222.967 631.297 222.78C631.084 222.58 630.824 222.427 630.517 222.32C630.224 222.213 629.911 222.16 629.577 222.16C628.884 222.16 628.311 222.353 627.857 222.74C627.404 223.127 627.117 223.66 626.997 224.34L624.917 224.16C625.011 223.533 625.191 222.993 625.457 222.54C625.737 222.073 626.077 221.687 626.477 221.38C626.891 221.073 627.357 220.847 627.877 220.7C628.411 220.553 628.984 220.48 629.597 220.48C630.211 220.48 630.784 220.567 631.317 220.74C631.864 220.9 632.337 221.147 632.737 221.48C633.151 221.8 633.471 222.207 633.697 222.7C633.937 223.18 634.057 223.747 634.057 224.4C634.057 224.867 633.984 225.307 633.837 225.72C633.704 226.12 633.524 226.5 633.297 226.86C633.071 227.22 632.811 227.56 632.517 227.88C632.224 228.2 631.917 228.513 631.597 228.82L626.937 233.32H634.057V235H624.777V232.96ZM641.691 231.88H635.651V229.92L641.291 220.84H643.611V230.2H645.611V231.88H643.611V235H641.691V231.88ZM641.691 223.12H641.651L637.331 230.2H641.691V223.12ZM652.804 231.88H646.764V229.92L652.404 220.84H654.724V230.2H656.724V231.88H654.724V235H652.804V231.88ZM652.804 223.12H652.764L648.444 230.2H652.804V223.12ZM659.797 237.64H658.157L659.537 232.72H661.477L659.797 237.64ZM669.25 232.96L674.93 227.32C675.13 227.133 675.323 226.933 675.51 226.72C675.697 226.493 675.863 226.26 676.01 226.02C676.157 225.78 676.27 225.527 676.35 225.26C676.443 224.993 676.49 224.713 676.49 224.42C676.49 224.073 676.423 223.76 676.29 223.48C676.17 223.2 675.997 222.967 675.77 222.78C675.557 222.58 675.297 222.427 674.99 222.32C674.697 222.213 674.383 222.16 674.05 222.16C673.357 222.16 672.783 222.353 672.33 222.74C671.877 223.127 671.59 223.66 671.47 224.34L669.39 224.16C669.483 223.533 669.663 222.993 669.93 222.54C670.21 222.073 670.55 221.687 670.95 221.38C671.363 221.073 671.83 220.847 672.35 220.7C672.883 220.553 673.457 220.48 674.07 220.48C674.683 220.48 675.257 220.567 675.79 220.74C676.337 220.9 676.81 221.147 677.21 221.48C677.623 221.8 677.943 222.207 678.17 222.7C678.41 223.18 678.53 223.747 678.53 224.4C678.53 224.867 678.457 225.307 678.31 225.72C678.177 226.12 677.997 226.5 677.77 226.86C677.543 227.22 677.283 227.56 676.99 227.88C676.697 228.2 676.39 228.513 676.07 228.82L671.41 233.32H678.53V235H669.25V232.96ZM686.163 231.88H680.123V229.92L685.763 220.84H688.083V230.2H690.083V231.88H688.083V235H686.163V231.88ZM686.163 223.12H686.123L681.803 230.2H686.163V223.12ZM697.277 231.88H691.237V229.92L696.877 220.84H699.197V230.2H701.197V231.88H699.197V235H697.277V231.88ZM697.277 223.12H697.237L692.917 230.2H697.277V223.12ZM704.27 237.64H702.63L704.01 232.72H705.95L704.27 237.64ZM713.723 232.96L719.403 227.32C719.603 227.133 719.796 226.933 719.983 226.72C720.169 226.493 720.336 226.26 720.483 226.02C720.629 225.78 720.743 225.527 720.823 225.26C720.916 224.993 720.963 224.713 720.963 224.42C720.963 224.073 720.896 223.76 720.763 223.48C720.643 223.2 720.469 222.967 720.243 222.78C720.029 222.58 719.769 222.427 719.463 222.32C719.169 222.213 718.856 222.16 718.523 222.16C717.829 222.16 717.256 222.353 716.803 222.74C716.349 223.127 716.063 223.66 715.943 224.34L713.863 224.16C713.956 223.533 714.136 222.993 714.403 222.54C714.683 222.073 715.023 221.687 715.423 221.38C715.836 221.073 716.303 220.847 716.823 220.7C717.356 220.553 717.929 220.48 718.543 220.48C719.156 220.48 719.729 220.567 720.263 220.74C720.809 220.9 721.283 221.147 721.683 221.48C722.096 221.8 722.416 222.207 722.643 222.7C722.883 223.18 723.003 223.747 723.003 224.4C723.003 224.867 722.929 225.307 722.783 225.72C722.649 226.12 722.469 226.5 722.243 226.86C722.016 227.22 721.756 227.56 721.463 227.88C721.169 228.2 720.863 228.513 720.543 228.82L715.883 233.32H723.003V235H713.723V232.96ZM730.636 231.88H724.596V229.92L730.236 220.84H732.556V230.2H734.556V231.88H732.556V235H730.636V231.88ZM730.636 223.12H730.596L726.276 230.2H730.636V223.12ZM741.749 231.88H735.709V229.92L741.349 220.84H743.669V230.2H745.669V231.88H743.669V235H741.749V231.88ZM741.749 223.12H741.709L737.389 230.2H741.749V223.12ZM746.623 237.44C747.049 236.76 747.423 236.107 747.743 235.48C748.063 234.853 748.329 234.22 748.543 233.58C748.756 232.927 748.916 232.253 749.023 231.56C749.129 230.867 749.183 230.12 749.183 229.32C749.183 227.853 748.969 226.433 748.543 225.06C748.116 223.687 747.476 222.413 746.623 221.24L747.823 220.44C748.743 221.693 749.456 223.073 749.963 224.58C750.483 226.087 750.743 227.667 750.743 229.32C750.743 230.853 750.496 232.387 750.003 233.92C749.509 235.453 748.783 236.88 747.823 238.2L746.623 237.44Z" fill="black"/>
<rect x="610" width="150" height="150" rx="75" fill="#F4F4F4"/>
<path opacity="0.7" d="M363.469 191.9C363.069 191.38 362.562 190.98 361.949 190.7C361.336 190.42 360.702 190.28 360.049 190.28C359.249 190.28 358.522 190.433 357.869 190.74C357.229 191.033 356.676 191.44 356.209 191.96C355.756 192.48 355.402 193.093 355.149 193.8C354.896 194.493 354.769 195.24 354.769 196.04C354.769 196.787 354.889 197.493 355.129 198.16C355.369 198.827 355.716 199.413 356.169 199.92C356.622 200.427 357.176 200.827 357.829 201.12C358.482 201.413 359.222 201.56 360.049 201.56C360.862 201.56 361.576 201.393 362.189 201.06C362.802 200.727 363.322 200.26 363.749 199.66L365.369 200.88C365.262 201.027 365.076 201.24 364.809 201.52C364.542 201.787 364.189 202.06 363.749 202.34C363.309 202.607 362.776 202.84 362.149 203.04C361.536 203.253 360.822 203.36 360.009 203.36C358.889 203.36 357.876 203.147 356.969 202.72C356.076 202.293 355.309 201.733 354.669 201.04C354.042 200.347 353.562 199.567 353.229 198.7C352.896 197.82 352.729 196.933 352.729 196.04C352.729 194.947 352.909 193.94 353.269 193.02C353.629 192.087 354.129 191.287 354.769 190.62C355.422 189.94 356.202 189.413 357.109 189.04C358.016 188.667 359.016 188.48 360.109 188.48C361.042 188.48 361.956 188.66 362.849 189.02C363.756 189.38 364.496 189.933 365.069 190.68L363.469 191.9ZM367.551 188.84H370.411L374.911 199.56H374.991L379.451 188.84H382.311V203H380.391V191.36H380.351L375.571 203H374.291L369.511 191.36H369.471V203H367.551V188.84ZM389.156 196.96L383.796 188.84H386.256L390.116 195.06L394.096 188.84H396.436L391.076 196.96V203H389.156V196.96ZM398.062 188.84H399.982V194.96H400.142L406.402 188.84H409.082L402.242 195.38L409.542 203H406.742L400.142 195.92H399.982V203H398.062V188.84ZM335.541 221.2C335.114 221.88 334.741 222.533 334.421 223.16C334.101 223.787 333.834 224.427 333.621 225.08C333.408 225.72 333.248 226.387 333.141 227.08C333.034 227.773 332.981 228.52 332.981 229.32C332.981 230.787 333.194 232.207 333.621 233.58C334.048 234.953 334.688 236.227 335.541 237.4L334.341 238.2C333.421 236.947 332.701 235.567 332.181 234.06C331.674 232.553 331.421 230.973 331.421 229.32C331.421 227.787 331.668 226.253 332.161 224.72C332.654 223.187 333.381 221.76 334.341 220.44L335.541 221.2ZM341.427 223.04L338.827 225.44L337.707 224.1L341.647 220.84H343.347V235H341.427V223.04ZM356.561 222.64H350.821L350.761 226.18C350.854 226.14 350.987 226.1 351.161 226.06C351.334 226.02 351.507 225.987 351.681 225.96C351.867 225.933 352.047 225.913 352.221 225.9C352.394 225.887 352.541 225.88 352.661 225.88C353.327 225.88 353.927 225.993 354.461 226.22C355.007 226.447 355.474 226.767 355.861 227.18C356.247 227.593 356.541 228.087 356.741 228.66C356.954 229.233 357.061 229.867 357.061 230.56C357.061 231.267 356.927 231.907 356.661 232.48C356.407 233.053 356.054 233.547 355.601 233.96C355.147 234.373 354.621 234.693 354.021 234.92C353.421 235.133 352.774 235.24 352.081 235.24C351.121 235.24 350.254 234.993 349.481 234.5C348.707 234.007 348.154 233.3 347.821 232.38L349.761 231.72C350.014 232.373 350.354 232.847 350.781 233.14C351.207 233.42 351.741 233.56 352.381 233.56C352.754 233.56 353.107 233.493 353.441 233.36C353.787 233.227 354.081 233.04 354.321 232.8C354.574 232.547 354.774 232.24 354.921 231.88C355.067 231.52 355.141 231.113 355.141 230.66C355.141 229.62 354.821 228.847 354.181 228.34C353.554 227.82 352.734 227.56 351.721 227.56C351.361 227.56 350.901 227.627 350.341 227.76C349.794 227.88 349.281 228.06 348.801 228.3L348.961 220.84H356.561V222.64ZM360.854 237.64H359.214L360.594 232.72H362.534L360.854 237.64ZM370.307 232.96L375.987 227.32C376.187 227.133 376.38 226.933 376.567 226.72C376.753 226.493 376.92 226.26 377.067 226.02C377.213 225.78 377.327 225.527 377.407 225.26C377.5 224.993 377.547 224.713 377.547 224.42C377.547 224.073 377.48 223.76 377.347 223.48C377.227 223.2 377.053 222.967 376.827 222.78C376.613 222.58 376.353 222.427 376.047 222.32C375.753 222.213 375.44 222.16 375.107 222.16C374.413 222.16 373.84 222.353 373.387 222.74C372.933 223.127 372.647 223.66 372.527 224.34L370.447 224.16C370.54 223.533 370.72 222.993 370.987 222.54C371.267 222.073 371.607 221.687 372.007 221.38C372.42 221.073 372.887 220.847 373.407 220.7C373.94 220.553 374.513 220.48 375.127 220.48C375.74 220.48 376.313 220.567 376.847 220.74C377.393 220.9 377.867 221.147 378.267 221.48C378.68 221.8 379 222.207 379.227 222.7C379.467 223.18 379.587 223.747 379.587 224.4C379.587 224.867 379.513 225.307 379.367 225.72C379.233 226.12 379.053 226.5 378.827 226.86C378.6 227.22 378.34 227.56 378.047 227.88C377.753 228.2 377.447 228.513 377.127 228.82L372.467 233.32H379.587V235H370.307V232.96ZM386.06 235.24C385.42 235.24 384.813 235.147 384.24 234.96C383.68 234.76 383.193 234.473 382.78 234.1C382.367 233.727 382.04 233.273 381.8 232.74C381.56 232.207 381.44 231.607 381.44 230.94C381.44 230.5 381.507 230.093 381.64 229.72C381.787 229.347 381.98 229.013 382.22 228.72C382.46 228.413 382.74 228.16 383.06 227.96C383.393 227.747 383.753 227.587 384.14 227.48V227.42C383.873 227.353 383.607 227.233 383.34 227.06C383.073 226.887 382.833 226.667 382.62 226.4C382.42 226.133 382.253 225.813 382.12 225.44C381.987 225.053 381.92 224.613 381.92 224.12C381.92 223.587 382.027 223.107 382.24 222.68C382.467 222.24 382.767 221.867 383.14 221.56C383.527 221.253 383.967 221.02 384.46 220.86C384.967 220.687 385.5 220.6 386.06 220.6C386.62 220.6 387.147 220.687 387.64 220.86C388.147 221.02 388.587 221.253 388.96 221.56C389.347 221.867 389.647 222.24 389.86 222.68C390.087 223.107 390.2 223.587 390.2 224.12C390.2 224.613 390.133 225.053 390 225.44C389.867 225.813 389.693 226.133 389.48 226.4C389.28 226.667 389.047 226.887 388.78 227.06C388.513 227.233 388.247 227.353 387.98 227.42V227.48C388.367 227.587 388.72 227.747 389.04 227.96C389.373 228.16 389.66 228.413 389.9 228.72C390.14 229.013 390.327 229.347 390.46 229.72C390.607 230.093 390.68 230.5 390.68 230.94C390.68 231.607 390.56 232.207 390.32 232.74C390.08 233.273 389.753 233.727 389.34 234.1C388.927 234.473 388.433 234.76 387.86 234.96C387.3 235.147 386.7 235.24 386.06 235.24ZM383.84 224.4C383.84 224.68 383.887 224.953 383.98 225.22C384.087 225.487 384.233 225.727 384.42 225.94C384.607 226.14 384.833 226.307 385.1 226.44C385.38 226.573 385.7 226.64 386.06 226.64C386.433 226.64 386.753 226.58 387.02 226.46C387.3 226.327 387.533 226.16 387.72 225.96C387.907 225.747 388.047 225.507 388.14 225.24C388.233 224.973 388.28 224.693 388.28 224.4C388.28 223.747 388.073 223.213 387.66 222.8C387.26 222.373 386.727 222.16 386.06 222.16C385.447 222.16 384.92 222.367 384.48 222.78C384.053 223.193 383.84 223.733 383.84 224.4ZM386.06 233.56C386.86 233.56 387.507 233.32 388 232.84C388.507 232.347 388.76 231.713 388.76 230.94C388.76 230.513 388.687 230.14 388.54 229.82C388.407 229.487 388.213 229.213 387.96 229C387.72 228.773 387.433 228.607 387.1 228.5C386.78 228.38 386.433 228.32 386.06 228.32C385.273 228.333 384.627 228.587 384.12 229.08C383.613 229.56 383.36 230.18 383.36 230.94C383.36 231.353 383.433 231.727 383.58 232.06C383.727 232.38 383.92 232.653 384.16 232.88C384.413 233.093 384.7 233.26 385.02 233.38C385.353 233.5 385.7 233.56 386.06 233.56ZM394.213 237.64H392.573L393.953 232.72H395.893L394.213 237.64ZM409.466 231.88H403.426V229.92L409.066 220.84H411.386V230.2H413.386V231.88H411.386V235H409.466V231.88ZM409.466 223.12H409.426L405.106 230.2H409.466V223.12ZM414.779 232.96L420.459 227.32C420.659 227.133 420.853 226.933 421.039 226.72C421.226 226.493 421.393 226.26 421.539 226.02C421.686 225.78 421.799 225.527 421.879 225.26C421.973 224.993 422.019 224.713 422.019 224.42C422.019 224.073 421.953 223.76 421.819 223.48C421.699 223.2 421.526 222.967 421.299 222.78C421.086 222.58 420.826 222.427 420.519 222.32C420.226 222.213 419.913 222.16 419.579 222.16C418.886 222.16 418.313 222.353 417.859 222.74C417.406 223.127 417.119 223.66 416.999 224.34L414.919 224.16C415.013 223.533 415.193 222.993 415.459 222.54C415.739 222.073 416.079 221.687 416.479 221.38C416.893 221.073 417.359 220.847 417.879 220.7C418.413 220.553 418.986 220.48 419.599 220.48C420.213 220.48 420.786 220.567 421.319 220.74C421.866 220.9 422.339 221.147 422.739 221.48C423.153 221.8 423.473 222.207 423.699 222.7C423.939 223.18 424.059 223.747 424.059 224.4C424.059 224.867 423.986 225.307 423.839 225.72C423.706 226.12 423.526 226.5 423.299 226.86C423.073 227.22 422.813 227.56 422.519 227.88C422.226 228.2 421.919 228.513 421.599 228.82L416.939 233.32H424.059V235H414.779V232.96ZM425.453 237.44C425.879 236.76 426.253 236.107 426.573 235.48C426.893 234.853 427.159 234.22 427.373 233.58C427.586 232.927 427.746 232.253 427.853 231.56C427.959 230.867 428.013 230.12 428.013 229.32C428.013 227.853 427.799 226.433 427.373 225.06C426.946 223.687 426.306 222.413 425.453 221.24L426.653 220.44C427.573 221.693 428.286 223.073 428.793 224.58C429.313 226.087 429.573 227.667 429.573 229.32C429.573 230.853 429.326 232.387 428.833 233.92C428.339 235.453 427.613 236.88 426.653 238.2L425.453 237.44Z" fill="black"/>
<rect x="305" width="150" height="150" rx="75" fill="#0F1C2A"/>
<path opacity="0.7" d="M58.4691 191.9C58.0691 191.38 57.5624 190.98 56.9491 190.7C56.3357 190.42 55.7024 190.28 55.0491 190.28C54.2491 190.28 53.5224 190.433 52.8691 190.74C52.2291 191.033 51.6757 191.44 51.2091 191.96C50.7557 192.48 50.4024 193.093 50.1491 193.8C49.8957 194.493 49.7691 195.24 49.7691 196.04C49.7691 196.787 49.8891 197.493 50.1291 198.16C50.3691 198.827 50.7157 199.413 51.1691 199.92C51.6224 200.427 52.1757 200.827 52.8291 201.12C53.4824 201.413 54.2224 201.56 55.0491 201.56C55.8624 201.56 56.5757 201.393 57.1891 201.06C57.8024 200.727 58.3224 200.26 58.7491 199.66L60.3691 200.88C60.2624 201.027 60.0757 201.24 59.8091 201.52C59.5424 201.787 59.1891 202.06 58.7491 202.34C58.3091 202.607 57.7757 202.84 57.1491 203.04C56.5357 203.253 55.8224 203.36 55.0091 203.36C53.8891 203.36 52.8757 203.147 51.9691 202.72C51.0757 202.293 50.3091 201.733 49.6691 201.04C49.0424 200.347 48.5624 199.567 48.2291 198.7C47.8957 197.82 47.7291 196.933 47.7291 196.04C47.7291 194.947 47.9091 193.94 48.2691 193.02C48.6291 192.087 49.1291 191.287 49.7691 190.62C50.4224 189.94 51.2024 189.413 52.1091 189.04C53.0157 188.667 54.0157 188.48 55.1091 188.48C56.0424 188.48 56.9557 188.66 57.8491 189.02C58.7557 189.38 59.4957 189.933 60.0691 190.68L58.4691 191.9ZM62.5511 188.84H65.4111L69.9111 199.56H69.9911L74.4511 188.84H77.3111V203H75.3911V191.36H75.3511L70.5711 203H69.2911L64.5111 191.36H64.4711V203H62.5511V188.84ZM84.1561 196.96L78.7961 188.84H81.2561L85.1161 195.06L89.0961 188.84H91.4361L86.0761 196.96V203H84.1561V196.96ZM93.0622 188.84H94.9822V194.96H95.1422L101.402 188.84H104.082L97.2422 195.38L104.542 203H101.742L95.1422 195.92H94.9822V203H93.0622V188.84ZM19.4277 221.2C19.001 221.88 18.6277 222.533 18.3077 223.16C17.9877 223.787 17.721 224.427 17.5077 225.08C17.2943 225.72 17.1343 226.387 17.0277 227.08C16.921 227.773 16.8677 228.52 16.8677 229.32C16.8677 230.787 17.081 232.207 17.5077 233.58C17.9343 234.953 18.5743 236.227 19.4277 237.4L18.2277 238.2C17.3077 236.947 16.5877 235.567 16.0677 234.06C15.561 232.553 15.3077 230.973 15.3077 229.32C15.3077 227.787 15.5543 226.253 16.0477 224.72C16.541 223.187 17.2677 221.76 18.2277 220.44L19.4277 221.2ZM24.3141 226.32H24.3941C24.8341 226.107 25.3541 226 25.9541 226C26.4607 226 26.9741 226.087 27.4941 226.26C28.0141 226.433 28.4807 226.707 28.8941 227.08C29.3207 227.44 29.6674 227.907 29.9341 228.48C30.2007 229.04 30.3341 229.707 30.3341 230.48C30.3341 231.267 30.2007 231.96 29.9341 232.56C29.6807 233.147 29.3341 233.64 28.8941 234.04C28.4541 234.44 27.9407 234.74 27.3541 234.94C26.7674 235.14 26.1407 235.24 25.4741 235.24C24.8074 235.24 24.1807 235.133 23.5941 234.92C23.0074 234.707 22.4941 234.4 22.0541 234C21.6141 233.6 21.2607 233.12 20.9941 232.56C20.7407 232 20.6141 231.373 20.6141 230.68C20.6141 230.24 20.6474 229.84 20.7141 229.48C20.7807 229.12 20.8741 228.78 20.9941 228.46C21.1274 228.127 21.2807 227.807 21.4541 227.5C21.6274 227.18 21.8207 226.847 22.0341 226.5L25.6141 220.84H27.8741L24.3141 226.32ZM22.5341 230.62C22.5341 231.047 22.6007 231.44 22.7341 231.8C22.8807 232.16 23.0807 232.473 23.3341 232.74C23.6007 232.993 23.9141 233.193 24.2741 233.34C24.6341 233.487 25.0341 233.56 25.4741 233.56C25.9141 233.56 26.3141 233.487 26.6741 233.34C27.0341 233.193 27.3407 232.993 27.5941 232.74C27.8607 232.473 28.0607 232.16 28.1941 231.8C28.3407 231.44 28.4141 231.047 28.4141 230.62C28.4141 230.193 28.3407 229.8 28.1941 229.44C28.0607 229.08 27.8607 228.773 27.5941 228.52C27.3407 228.253 27.0341 228.047 26.6741 227.9C26.3141 227.753 25.9141 227.68 25.4741 227.68C25.0341 227.68 24.6341 227.753 24.2741 227.9C23.9141 228.047 23.6007 228.253 23.3341 228.52C23.0807 228.773 22.8807 229.08 22.7341 229.44C22.6007 229.8 22.5341 230.193 22.5341 230.62ZM31.9473 232.96L37.6273 227.32C37.8273 227.133 38.0207 226.933 38.2073 226.72C38.394 226.493 38.5607 226.26 38.7073 226.02C38.854 225.78 38.9673 225.527 39.0473 225.26C39.1407 224.993 39.1873 224.713 39.1873 224.42C39.1873 224.073 39.1207 223.76 38.9873 223.48C38.8673 223.2 38.694 222.967 38.4673 222.78C38.254 222.58 37.994 222.427 37.6873 222.32C37.394 222.213 37.0807 222.16 36.7473 222.16C36.054 222.16 35.4807 222.353 35.0273 222.74C34.574 223.127 34.2873 223.66 34.1673 224.34L32.0873 224.16C32.1807 223.533 32.3607 222.993 32.6273 222.54C32.9073 222.073 33.2473 221.687 33.6473 221.38C34.0607 221.073 34.5273 220.847 35.0473 220.7C35.5807 220.553 36.154 220.48 36.7673 220.48C37.3807 220.48 37.954 220.567 38.4873 220.74C39.034 220.9 39.5073 221.147 39.9073 221.48C40.3207 221.8 40.6407 222.207 40.8673 222.7C41.1073 223.18 41.2273 223.747 41.2273 224.4C41.2273 224.867 41.154 225.307 41.0073 225.72C40.874 226.12 40.694 226.5 40.4673 226.86C40.2407 227.22 39.9807 227.56 39.6873 227.88C39.394 228.2 39.0873 228.513 38.7673 228.82L34.1073 233.32H41.2273V235H31.9473V232.96ZM44.7406 237.64H43.1006L44.4806 232.72H46.4206L44.7406 237.64ZM58.6734 223.04L56.0734 225.44L54.9534 224.1L58.8934 220.84H60.5934V235H58.6734V223.04ZM65.0667 227.92C65.0667 227.4 65.0934 226.86 65.1467 226.3C65.2001 225.74 65.2934 225.193 65.4267 224.66C65.5734 224.113 65.7601 223.593 65.9867 223.1C66.2267 222.607 66.5267 222.18 66.8867 221.82C67.2601 221.447 67.6934 221.153 68.1867 220.94C68.6934 220.713 69.2801 220.6 69.9467 220.6C70.6134 220.6 71.1934 220.713 71.6867 220.94C72.1934 221.153 72.6267 221.447 72.9867 221.82C73.3601 222.18 73.6601 222.607 73.8867 223.1C74.1267 223.593 74.3134 224.113 74.4467 224.66C74.5934 225.193 74.6934 225.74 74.7467 226.3C74.8001 226.86 74.8267 227.4 74.8267 227.92C74.8267 228.667 74.7601 229.467 74.6267 230.32C74.4934 231.173 74.2467 231.967 73.8867 232.7C73.5267 233.433 73.0267 234.04 72.3867 234.52C71.7601 235 70.9467 235.24 69.9467 235.24C68.9467 235.24 68.1267 235 67.4867 234.52C66.8601 234.04 66.3667 233.433 66.0067 232.7C65.6467 231.967 65.4001 231.173 65.2667 230.32C65.1334 229.467 65.0667 228.667 65.0667 227.92ZM66.9867 227.92C66.9867 228.387 67.0134 228.94 67.0667 229.58C67.1334 230.22 67.2667 230.84 67.4667 231.44C67.6667 232.027 67.9601 232.527 68.3467 232.94C68.7467 233.353 69.2801 233.56 69.9467 233.56C70.6134 233.56 71.1401 233.353 71.5267 232.94C71.9267 232.527 72.2267 232.027 72.4267 231.44C72.6267 230.84 72.7534 230.22 72.8067 229.58C72.8734 228.94 72.9067 228.387 72.9067 227.92C72.9067 227.6 72.8934 227.24 72.8667 226.84C72.8534 226.427 72.8067 226.013 72.7267 225.6C72.6601 225.173 72.5601 224.767 72.4267 224.38C72.2934 223.98 72.1134 223.627 71.8867 223.32C71.6734 223 71.4067 222.747 71.0867 222.56C70.7667 222.373 70.3867 222.28 69.9467 222.28C69.5067 222.28 69.1267 222.373 68.8067 222.56C68.4867 222.747 68.2134 223 67.9867 223.32C67.7734 223.627 67.6001 223.98 67.4667 224.38C67.3334 224.767 67.2267 225.173 67.1467 225.6C67.0801 226.013 67.0334 226.427 67.0067 226.84C66.9934 227.24 66.9867 227.6 66.9867 227.92ZM84.92 222.64H79.18L79.12 226.18C79.2133 226.14 79.3467 226.1 79.52 226.06C79.6933 226.02 79.8667 225.987 80.04 225.96C80.2267 225.933 80.4067 225.913 80.58 225.9C80.7533 225.887 80.9 225.88 81.02 225.88C81.6867 225.88 82.2867 225.993 82.82 226.22C83.3667 226.447 83.8333 226.767 84.22 227.18C84.6067 227.593 84.9 228.087 85.1 228.66C85.3133 229.233 85.42 229.867 85.42 230.56C85.42 231.267 85.2867 231.907 85.02 232.48C84.7667 233.053 84.4133 233.547 83.96 233.96C83.5067 234.373 82.98 234.693 82.38 234.92C81.78 235.133 81.1333 235.24 80.44 235.24C79.48 235.24 78.6133 234.993 77.84 234.5C77.0667 234.007 76.5133 233.3 76.18 232.38L78.12 231.72C78.3733 232.373 78.7133 232.847 79.14 233.14C79.5667 233.42 80.1 233.56 80.74 233.56C81.1133 233.56 81.4667 233.493 81.8 233.36C82.1467 233.227 82.44 233.04 82.68 232.8C82.9333 232.547 83.1333 232.24 83.28 231.88C83.4267 231.52 83.5 231.113 83.5 230.66C83.5 229.62 83.18 228.847 82.54 228.34C81.9133 227.82 81.0933 227.56 80.08 227.56C79.72 227.56 79.26 227.627 78.7 227.76C78.1533 227.88 77.64 228.06 77.16 228.3L77.32 220.84H84.92V222.64ZM89.2133 237.64H87.5733L88.9533 232.72H90.8933L89.2133 237.64ZM98.6661 232.96L104.346 227.32C104.546 227.133 104.739 226.933 104.926 226.72C105.113 226.493 105.279 226.26 105.426 226.02C105.573 225.78 105.686 225.527 105.766 225.26C105.859 224.993 105.906 224.713 105.906 224.42C105.906 224.073 105.839 223.76 105.706 223.48C105.586 223.2 105.413 222.967 105.186 222.78C104.973 222.58 104.713 222.427 104.406 222.32C104.113 222.213 103.799 222.16 103.466 222.16C102.773 222.16 102.199 222.353 101.746 222.74C101.293 223.127 101.006 223.66 100.886 224.34L98.8061 224.16C98.8994 223.533 99.0794 222.993 99.3461 222.54C99.6261 222.073 99.9661 221.687 100.366 221.38C100.779 221.073 101.246 220.847 101.766 220.7C102.299 220.553 102.873 220.48 103.486 220.48C104.099 220.48 104.673 220.567 105.206 220.74C105.753 220.9 106.226 221.147 106.626 221.48C107.039 221.8 107.359 222.207 107.586 222.7C107.826 223.18 107.946 223.747 107.946 224.4C107.946 224.867 107.873 225.307 107.726 225.72C107.593 226.12 107.413 226.5 107.186 226.86C106.959 227.22 106.699 227.56 106.406 227.88C106.113 228.2 105.806 228.513 105.486 228.82L100.826 233.32H107.946V235H98.6661V232.96ZM118.279 222.64H112.539L112.479 226.18C112.573 226.14 112.706 226.1 112.879 226.06C113.053 226.02 113.226 225.987 113.399 225.96C113.586 225.933 113.766 225.913 113.939 225.9C114.113 225.887 114.259 225.88 114.379 225.88C115.046 225.88 115.646 225.993 116.179 226.22C116.726 226.447 117.193 226.767 117.579 227.18C117.966 227.593 118.259 228.087 118.459 228.66C118.673 229.233 118.779 229.867 118.779 230.56C118.779 231.267 118.646 231.907 118.379 232.48C118.126 233.053 117.773 233.547 117.319 233.96C116.866 234.373 116.339 234.693 115.739 234.92C115.139 235.133 114.493 235.24 113.799 235.24C112.839 235.24 111.973 234.993 111.199 234.5C110.426 234.007 109.873 233.3 109.539 232.38L111.479 231.72C111.733 232.373 112.073 232.847 112.499 233.14C112.926 233.42 113.459 233.56 114.099 233.56C114.473 233.56 114.826 233.493 115.159 233.36C115.506 233.227 115.799 233.04 116.039 232.8C116.293 232.547 116.493 232.24 116.639 231.88C116.786 231.52 116.859 231.113 116.859 230.66C116.859 229.62 116.539 228.847 115.899 228.34C115.273 227.82 114.453 227.56 113.439 227.56C113.079 227.56 112.619 227.627 112.059 227.76C111.513 227.88 110.999 228.06 110.519 228.3L110.679 220.84H118.279V222.64ZM129.393 222.64H123.653L123.593 226.18C123.686 226.14 123.819 226.1 123.993 226.06C124.166 226.02 124.339 225.987 124.513 225.96C124.699 225.933 124.879 225.913 125.053 225.9C125.226 225.887 125.373 225.88 125.493 225.88C126.159 225.88 126.759 225.993 127.293 226.22C127.839 226.447 128.306 226.767 128.693 227.18C129.079 227.593 129.373 228.087 129.573 228.66C129.786 229.233 129.893 229.867 129.893 230.56C129.893 231.267 129.759 231.907 129.493 232.48C129.239 233.053 128.886 233.547 128.433 233.96C127.979 234.373 127.453 234.693 126.853 234.92C126.253 235.133 125.606 235.24 124.913 235.24C123.953 235.24 123.086 234.993 122.313 234.5C121.539 234.007 120.986 233.3 120.653 232.38L122.593 231.72C122.846 232.373 123.186 232.847 123.613 233.14C124.039 233.42 124.573 233.56 125.213 233.56C125.586 233.56 125.939 233.493 126.273 233.36C126.619 233.227 126.913 233.04 127.153 232.8C127.406 232.547 127.606 232.24 127.753 231.88C127.899 231.52 127.973 231.113 127.973 230.66C127.973 229.62 127.653 228.847 127.013 228.34C126.386 227.82 125.566 227.56 124.553 227.56C124.193 227.56 123.733 227.627 123.173 227.76C122.626 227.88 122.113 228.06 121.633 228.3L121.793 220.84H129.393V222.64ZM131.566 237.44C131.993 236.76 132.366 236.107 132.686 235.48C133.006 234.853 133.273 234.22 133.486 233.58C133.699 232.927 133.859 232.253 133.966 231.56C134.073 230.867 134.126 230.12 134.126 229.32C134.126 227.853 133.913 226.433 133.486 225.06C133.059 223.687 132.419 222.413 131.566 221.24L132.766 220.44C133.686 221.693 134.399 223.073 134.906 224.58C135.426 226.087 135.686 227.667 135.686 229.32C135.686 230.853 135.439 232.387 134.946 233.92C134.453 235.453 133.726 236.88 132.766 238.2L131.566 237.44Z" fill="black"/>
<rect width="150" height="150" rx="75" fill="#3E64FF"/>
</svg>
