<svg width="564" height="456" viewBox="0 0 564 456" fill="none" xmlns="http://www.w3.org/2000/svg">
<path opacity="0.7" d="M440.917 438.672H442.453V448.56H447.653V450H440.917V438.672ZM449.214 438.672H450.75V450H449.214V438.672ZM463.315 443.664V449.248C463.038 449.419 462.723 449.568 462.371 449.696C462.019 449.824 461.651 449.931 461.267 450.016C460.894 450.112 460.51 450.181 460.115 450.224C459.731 450.267 459.368 450.288 459.027 450.288C458.067 450.288 457.208 450.128 456.451 449.808C455.704 449.488 455.07 449.056 454.547 448.512C454.035 447.968 453.64 447.339 453.363 446.624C453.096 445.899 452.963 445.136 452.963 444.336C452.963 443.493 453.107 442.709 453.395 441.984C453.694 441.259 454.099 440.629 454.611 440.096C455.134 439.563 455.758 439.147 456.483 438.848C457.208 438.539 458.003 438.384 458.867 438.384C459.912 438.384 460.766 438.517 461.427 438.784C462.088 439.04 462.643 439.397 463.091 439.856L462.003 441.024C461.534 440.576 461.038 440.267 460.515 440.096C459.992 439.915 459.443 439.824 458.867 439.824C458.216 439.824 457.63 439.947 457.107 440.192C456.584 440.427 456.136 440.747 455.763 441.152C455.39 441.557 455.102 442.037 454.899 442.592C454.696 443.136 454.595 443.717 454.595 444.336C454.595 444.976 454.707 445.573 454.931 446.128C455.155 446.672 455.464 447.147 455.859 447.552C456.254 447.957 456.718 448.277 457.251 448.512C457.784 448.736 458.366 448.848 458.995 448.848C459.539 448.848 460.051 448.8 460.531 448.704C461.022 448.597 461.438 448.448 461.779 448.256V445.104H459.267V443.664H463.315ZM466.12 438.672H467.656V443.376H473.528V438.672H475.064V450H473.528V444.816H467.656V450H466.12V438.672ZM480.347 440.112H476.699V438.672H485.531V440.112H481.883V450H480.347V440.112ZM495.172 438.672H496.564L501.412 450H499.62L498.484 447.2H493.092L491.972 450H490.18L495.172 438.672ZM497.924 445.856L495.812 440.656H495.78L493.636 445.856H497.924ZM510.774 441.12C510.454 440.704 510.048 440.384 509.558 440.16C509.067 439.936 508.56 439.824 508.038 439.824C507.398 439.824 506.816 439.947 506.294 440.192C505.782 440.427 505.339 440.752 504.966 441.168C504.603 441.584 504.32 442.075 504.118 442.64C503.915 443.195 503.814 443.792 503.814 444.432C503.814 445.029 503.91 445.595 504.102 446.128C504.294 446.661 504.571 447.131 504.934 447.536C505.296 447.941 505.739 448.261 506.262 448.496C506.784 448.731 507.376 448.848 508.038 448.848C508.688 448.848 509.259 448.715 509.75 448.448C510.24 448.181 510.656 447.808 510.998 447.328L512.294 448.304C512.208 448.421 512.059 448.592 511.846 448.816C511.632 449.029 511.35 449.248 510.998 449.472C510.646 449.685 510.219 449.872 509.718 450.032C509.227 450.203 508.656 450.288 508.006 450.288C507.11 450.288 506.299 450.117 505.574 449.776C504.859 449.435 504.246 448.987 503.734 448.432C503.232 447.877 502.848 447.253 502.582 446.56C502.315 445.856 502.182 445.147 502.182 444.432C502.182 443.557 502.326 442.752 502.614 442.016C502.902 441.269 503.302 440.629 503.814 440.096C504.336 439.552 504.96 439.131 505.686 438.832C506.411 438.533 507.211 438.384 508.086 438.384C508.832 438.384 509.563 438.528 510.278 438.816C511.003 439.104 511.595 439.547 512.054 440.144L510.774 441.12ZM525.847 450H519.319C518.519 450 517.762 449.856 517.047 449.568C516.333 449.28 515.709 448.88 515.175 448.368C514.642 447.856 514.221 447.248 513.911 446.544C513.602 445.829 513.447 445.051 513.447 444.208C513.447 443.376 513.597 442.608 513.895 441.904C514.194 441.189 514.605 440.571 515.127 440.048C515.661 439.525 516.279 439.12 516.983 438.832C517.698 438.533 518.471 438.384 519.303 438.384C520.103 438.384 520.85 438.528 521.543 438.816C522.247 439.104 522.861 439.504 523.383 440.016C523.906 440.517 524.317 441.115 524.615 441.808C524.925 442.491 525.079 443.237 525.079 444.048C525.079 444.528 525.021 445.003 524.903 445.472C524.797 445.931 524.631 446.363 524.407 446.768C524.194 447.173 523.922 447.536 523.591 447.856C523.271 448.176 522.903 448.432 522.487 448.624V448.656H525.847V450ZM519.255 448.56C519.874 448.56 520.439 448.448 520.951 448.224C521.474 447.989 521.917 447.675 522.279 447.28C522.653 446.875 522.941 446.4 523.143 445.856C523.346 445.312 523.447 444.731 523.447 444.112C523.447 443.515 523.341 442.955 523.127 442.432C522.925 441.909 522.637 441.456 522.263 441.072C521.89 440.688 521.447 440.384 520.935 440.16C520.423 439.936 519.863 439.824 519.255 439.824C518.658 439.824 518.103 439.936 517.591 440.16C517.09 440.384 516.653 440.688 516.279 441.072C515.906 441.456 515.613 441.909 515.399 442.432C515.186 442.944 515.079 443.493 515.079 444.08C515.079 444.699 515.181 445.28 515.383 445.824C515.586 446.368 515.869 446.843 516.231 447.248C516.605 447.653 517.047 447.973 517.559 448.208C518.071 448.443 518.637 448.56 519.255 448.56ZM528.792 438.672V445.616C528.792 445.968 528.84 446.336 528.936 446.72C529.032 447.093 529.192 447.44 529.416 447.76C529.64 448.08 529.933 448.341 530.296 448.544C530.658 448.747 531.106 448.848 531.64 448.848C532.173 448.848 532.621 448.747 532.984 448.544C533.346 448.341 533.64 448.08 533.864 447.76C534.088 447.44 534.248 447.093 534.344 446.72C534.44 446.336 534.488 445.968 534.488 445.616V438.672H536.024V445.856C536.024 446.517 535.912 447.12 535.688 447.664C535.464 448.197 535.154 448.661 534.76 449.056C534.365 449.451 533.901 449.755 533.368 449.968C532.834 450.181 532.258 450.288 531.64 450.288C531.021 450.288 530.445 450.181 529.912 449.968C529.378 449.755 528.914 449.451 528.52 449.056C528.125 448.661 527.816 448.197 527.592 447.664C527.368 447.12 527.256 446.517 527.256 445.856V438.672H528.792ZM542.281 438.672H543.673L548.521 450H546.729L545.593 447.2H540.201L539.081 450H537.289L542.281 438.672ZM545.033 445.856L542.921 440.656H542.889L540.745 445.856H545.033Z" fill="black"/>
<rect x="424" y="259" width="140" height="140" rx="70" fill="#EAF0F6"/>
<path opacity="0.7" d="M220.657 438.672H222.945L226.545 447.248H226.609L230.177 438.672H232.465V450H230.929V440.688H230.897L227.073 450H226.049L222.225 440.688H222.193V450H220.657V438.672ZM235.269 438.672H236.805V450H235.269V438.672ZM239.466 438.672H243.418C244.218 438.672 244.916 438.763 245.514 438.944C246.122 439.125 246.644 439.371 247.082 439.68C247.53 439.979 247.898 440.325 248.186 440.72C248.484 441.115 248.719 441.52 248.89 441.936C249.06 442.352 249.183 442.768 249.258 443.184C249.332 443.6 249.37 443.984 249.37 444.336C249.37 445.061 249.236 445.765 248.97 446.448C248.703 447.12 248.308 447.723 247.786 448.256C247.263 448.779 246.612 449.2 245.834 449.52C245.066 449.84 244.175 450 243.162 450H239.466V438.672ZM241.002 448.56H242.938C243.588 448.56 244.202 448.475 244.778 448.304C245.364 448.123 245.876 447.856 246.314 447.504C246.751 447.152 247.098 446.715 247.354 446.192C247.61 445.659 247.738 445.04 247.738 444.336C247.738 443.973 247.679 443.552 247.562 443.072C247.444 442.581 247.22 442.117 246.89 441.68C246.57 441.243 246.122 440.875 245.546 440.576C244.97 440.267 244.223 440.112 243.306 440.112H241.002V448.56ZM251.581 438.672H253.597L259.837 447.984H259.869V438.672H261.405V450H259.453L253.149 440.688H253.117V450H251.581V438.672ZM264.315 438.672H265.851V450H264.315V438.672ZM278.417 443.664V449.248C278.139 449.419 277.825 449.568 277.473 449.696C277.121 449.824 276.753 449.931 276.369 450.016C275.995 450.112 275.611 450.181 275.217 450.224C274.833 450.267 274.47 450.288 274.129 450.288C273.169 450.288 272.31 450.128 271.553 449.808C270.806 449.488 270.171 449.056 269.649 448.512C269.137 447.968 268.742 447.339 268.465 446.624C268.198 445.899 268.065 445.136 268.065 444.336C268.065 443.493 268.209 442.709 268.497 441.984C268.795 441.259 269.201 440.629 269.713 440.096C270.235 439.563 270.859 439.147 271.585 438.848C272.31 438.539 273.105 438.384 273.969 438.384C275.014 438.384 275.867 438.517 276.529 438.784C277.19 439.04 277.745 439.397 278.193 439.856L277.105 441.024C276.635 440.576 276.139 440.267 275.617 440.096C275.094 439.915 274.545 439.824 273.969 439.824C273.318 439.824 272.731 439.947 272.209 440.192C271.686 440.427 271.238 440.747 270.865 441.152C270.491 441.557 270.203 442.037 270.001 442.592C269.798 443.136 269.697 443.717 269.697 444.336C269.697 444.976 269.809 445.573 270.033 446.128C270.257 446.672 270.566 447.147 270.961 447.552C271.355 447.957 271.819 448.277 272.353 448.512C272.886 448.736 273.467 448.848 274.097 448.848C274.641 448.848 275.153 448.8 275.633 448.704C276.123 448.597 276.539 448.448 276.881 448.256V445.104H274.369V443.664H278.417ZM281.222 438.672H282.758V443.376H288.63V438.672H290.166V450H288.63V444.816H282.758V450H281.222V438.672ZM295.449 440.112H291.801V438.672H300.633V440.112H296.985V450H295.449V440.112ZM306.722 438.672H310.658C311.148 438.672 311.602 438.731 312.018 438.848C312.444 438.965 312.807 439.141 313.106 439.376C313.415 439.6 313.655 439.893 313.826 440.256C314.007 440.608 314.098 441.024 314.098 441.504C314.098 442.155 313.916 442.688 313.554 443.104C313.191 443.509 312.722 443.808 312.146 444V444.032C312.487 444.053 312.807 444.144 313.106 444.304C313.404 444.453 313.66 444.656 313.874 444.912C314.098 445.157 314.274 445.445 314.402 445.776C314.53 446.107 314.594 446.464 314.594 446.848C314.594 447.36 314.487 447.813 314.274 448.208C314.071 448.592 313.788 448.917 313.426 449.184C313.063 449.451 312.642 449.653 312.162 449.792C311.682 449.931 311.164 450 310.61 450H306.722V438.672ZM308.258 443.376H310.354C310.642 443.376 310.914 443.349 311.17 443.296C311.426 443.232 311.65 443.131 311.842 442.992C312.034 442.853 312.183 442.677 312.29 442.464C312.407 442.251 312.466 441.989 312.466 441.68C312.466 441.232 312.322 440.843 312.034 440.512C311.746 440.181 311.292 440.016 310.674 440.016H308.258V443.376ZM308.258 448.656H310.514C310.748 448.656 311.004 448.635 311.282 448.592C311.57 448.539 311.836 448.443 312.082 448.304C312.327 448.155 312.535 447.957 312.706 447.712C312.876 447.467 312.962 447.141 312.962 446.736C312.962 446.064 312.743 445.563 312.306 445.232C311.868 444.891 311.276 444.72 310.53 444.72H308.258V448.656ZM316.8 438.672H318.336V448.56H323.536V450H316.8V438.672ZM326.425 438.672V445.616C326.425 445.968 326.473 446.336 326.569 446.72C326.665 447.093 326.825 447.44 327.049 447.76C327.273 448.08 327.566 448.341 327.929 448.544C328.291 448.747 328.739 448.848 329.273 448.848C329.806 448.848 330.254 448.747 330.617 448.544C330.979 448.341 331.273 448.08 331.497 447.76C331.721 447.44 331.881 447.093 331.977 446.72C332.073 446.336 332.121 445.968 332.121 445.616V438.672H333.657V445.856C333.657 446.517 333.545 447.12 333.321 447.664C333.097 448.197 332.787 448.661 332.393 449.056C331.998 449.451 331.534 449.755 331.001 449.968C330.467 450.181 329.891 450.288 329.273 450.288C328.654 450.288 328.078 450.181 327.545 449.968C327.011 449.755 326.547 449.451 326.153 449.056C325.758 448.661 325.449 448.197 325.225 447.664C325.001 447.12 324.889 446.517 324.889 445.856V438.672H326.425ZM336.362 438.672H343.674V440.112H337.898V443.488H343.274V444.928H337.898V448.56H343.962V450H336.362V438.672Z" fill="black"/>
<rect x="212" y="259" width="140" height="140" rx="70" fill="#0F1C2A"/>
<path opacity="0.7" d="M26.2781 438.672H30.2301C31.0301 438.672 31.7288 438.763 32.3261 438.944C32.9341 439.125 33.4568 439.371 33.8941 439.68C34.3421 439.979 34.7101 440.325 34.9981 440.72C35.2968 441.115 35.5315 441.52 35.7021 441.936C35.8728 442.352 35.9955 442.768 36.0701 443.184C36.1448 443.6 36.1821 443.984 36.1821 444.336C36.1821 445.061 36.0488 445.765 35.7821 446.448C35.5155 447.12 35.1208 447.723 34.5981 448.256C34.0755 448.779 33.4248 449.2 32.6461 449.52C31.8781 449.84 30.9875 450 29.9741 450H26.2781V438.672ZM27.8141 448.56H29.7501C30.4008 448.56 31.0141 448.475 31.5901 448.304C32.1768 448.123 32.6888 447.856 33.1261 447.504C33.5635 447.152 33.9101 446.715 34.1661 446.192C34.4221 445.659 34.5501 445.04 34.5501 444.336C34.5501 443.973 34.4915 443.552 34.3741 443.072C34.2568 442.581 34.0328 442.117 33.7021 441.68C33.3821 441.243 32.9341 440.875 32.3581 440.576C31.7821 440.267 31.0355 440.112 30.1181 440.112H27.8141V448.56ZM41.9455 438.672H43.3375L48.1855 450H46.3935L45.2575 447.2H39.8655L38.7455 450H36.9535L41.9455 438.672ZM44.6975 445.856L42.5855 440.656H42.5535L40.4095 445.856H44.6975ZM49.6591 438.672H53.6431C54.3685 438.672 54.9658 438.773 55.4351 438.976C55.9045 439.168 56.2725 439.419 56.5391 439.728C56.8165 440.027 57.0085 440.368 57.1151 440.752C57.2218 441.125 57.2751 441.488 57.2751 441.84C57.2751 442.203 57.2111 442.555 57.0831 442.896C56.9551 443.227 56.7685 443.531 56.5231 443.808C56.2885 444.075 55.9951 444.304 55.6431 444.496C55.3018 444.677 54.9178 444.789 54.4911 444.832L57.7071 450H55.7871L52.9071 445.008H51.1951V450H49.6591V438.672ZM51.1951 443.664H53.2111C53.5098 443.664 53.8031 443.643 54.0911 443.6C54.3898 443.547 54.6511 443.456 54.8751 443.328C55.1098 443.2 55.2965 443.019 55.4351 442.784C55.5738 442.539 55.6431 442.224 55.6431 441.84C55.6431 441.456 55.5738 441.147 55.4351 440.912C55.2965 440.667 55.1098 440.48 54.8751 440.352C54.6511 440.224 54.3898 440.139 54.0911 440.096C53.8031 440.043 53.5098 440.016 53.2111 440.016H51.1951V443.664ZM59.4404 438.672H60.9764V443.568H61.1044L66.1124 438.672H68.2564L62.7844 443.904L68.6244 450H66.3844L61.1044 444.336H60.9764V450H59.4404V438.672ZM83.9165 443.664V449.248C83.6392 449.419 83.3245 449.568 82.9725 449.696C82.6205 449.824 82.2525 449.931 81.8685 450.016C81.4952 450.112 81.1112 450.181 80.7165 450.224C80.3325 450.267 79.9698 450.288 79.6285 450.288C78.6685 450.288 77.8098 450.128 77.0525 449.808C76.3058 449.488 75.6712 449.056 75.1485 448.512C74.6365 447.968 74.2418 447.339 73.9645 446.624C73.6978 445.899 73.5645 445.136 73.5645 444.336C73.5645 443.493 73.7085 442.709 73.9965 441.984C74.2952 441.259 74.7005 440.629 75.2125 440.096C75.7352 439.563 76.3592 439.147 77.0845 438.848C77.8098 438.539 78.6045 438.384 79.4685 438.384C80.5138 438.384 81.3672 438.517 82.0285 438.784C82.6898 439.04 83.2445 439.397 83.6925 439.856L82.6045 441.024C82.1352 440.576 81.6392 440.267 81.1165 440.096C80.5938 439.915 80.0445 439.824 79.4685 439.824C78.8178 439.824 78.2312 439.947 77.7085 440.192C77.1858 440.427 76.7378 440.747 76.3645 441.152C75.9912 441.557 75.7032 442.037 75.5005 442.592C75.2978 443.136 75.1965 443.717 75.1965 444.336C75.1965 444.976 75.3085 445.573 75.5325 446.128C75.7565 446.672 76.0658 447.147 76.4605 447.552C76.8552 447.957 77.3192 448.277 77.8525 448.512C78.3858 448.736 78.9672 448.848 79.5965 448.848C80.1405 448.848 80.6525 448.8 81.1325 448.704C81.6232 448.597 82.0392 448.448 82.3805 448.256V445.104H79.8685V443.664H83.9165ZM86.7216 438.672H90.7056C91.431 438.672 92.0283 438.773 92.4976 438.976C92.967 439.168 93.335 439.419 93.6016 439.728C93.879 440.027 94.071 440.368 94.1776 440.752C94.2843 441.125 94.3376 441.488 94.3376 441.84C94.3376 442.203 94.2736 442.555 94.1456 442.896C94.0176 443.227 93.831 443.531 93.5856 443.808C93.351 444.075 93.0576 444.304 92.7056 444.496C92.3643 444.677 91.9803 444.789 91.5536 444.832L94.7696 450H92.8496L89.9696 445.008H88.2576V450H86.7216V438.672ZM88.2576 443.664H90.2736C90.5723 443.664 90.8656 443.643 91.1536 443.6C91.4523 443.547 91.7136 443.456 91.9376 443.328C92.1723 443.2 92.359 443.019 92.4976 442.784C92.6363 442.539 92.7056 442.224 92.7056 441.84C92.7056 441.456 92.6363 441.147 92.4976 440.912C92.359 440.667 92.1723 440.48 91.9376 440.352C91.7136 440.224 91.4523 440.139 91.1536 440.096C90.8656 440.043 90.5723 440.016 90.2736 440.016H88.2576V443.664ZM100.055 438.672H101.447L106.295 450H104.503L103.367 447.2H97.9749L96.8549 450H95.0629L100.055 438.672ZM102.807 445.856L100.695 440.656H100.663L98.5189 445.856H102.807ZM109.253 445.168L104.965 438.672H106.933L110.021 443.648L113.205 438.672H115.077L110.789 445.168V450H109.253V445.168Z" fill="black"/>
<rect x="1" y="259" width="140" height="140" rx="70" fill="#4F4E56"/>
<path opacity="0.7" d="M457.448 184.664V190.248C457.17 190.419 456.856 190.568 456.504 190.696C456.152 190.824 455.784 190.931 455.4 191.016C455.026 191.112 454.642 191.181 454.248 191.224C453.864 191.267 453.501 191.288 453.16 191.288C452.2 191.288 451.341 191.128 450.584 190.808C449.837 190.488 449.202 190.056 448.68 189.512C448.168 188.968 447.773 188.339 447.496 187.624C447.229 186.899 447.096 186.136 447.096 185.336C447.096 184.493 447.24 183.709 447.528 182.984C447.826 182.259 448.232 181.629 448.744 181.096C449.266 180.563 449.89 180.147 450.616 179.848C451.341 179.539 452.136 179.384 453 179.384C454.045 179.384 454.898 179.517 455.56 179.784C456.221 180.04 456.776 180.397 457.224 180.856L456.136 182.024C455.666 181.576 455.17 181.267 454.648 181.096C454.125 180.915 453.576 180.824 453 180.824C452.349 180.824 451.762 180.947 451.24 181.192C450.717 181.427 450.269 181.747 449.896 182.152C449.522 182.557 449.234 183.037 449.032 183.592C448.829 184.136 448.728 184.717 448.728 185.336C448.728 185.976 448.84 186.573 449.064 187.128C449.288 187.672 449.597 188.147 449.992 188.552C450.386 188.957 450.85 189.277 451.384 189.512C451.917 189.736 452.498 189.848 453.128 189.848C453.672 189.848 454.184 189.8 454.664 189.704C455.154 189.597 455.57 189.448 455.912 189.256V186.104H453.4V184.664H457.448ZM460.253 179.672H464.237C464.962 179.672 465.56 179.773 466.029 179.976C466.498 180.168 466.866 180.419 467.133 180.728C467.41 181.027 467.602 181.368 467.709 181.752C467.816 182.125 467.869 182.488 467.869 182.84C467.869 183.203 467.805 183.555 467.677 183.896C467.549 184.227 467.362 184.531 467.117 184.808C466.882 185.075 466.589 185.304 466.237 185.496C465.896 185.677 465.512 185.789 465.085 185.832L468.301 191H466.381L463.501 186.008H461.789V191H460.253V179.672ZM461.789 184.664H463.805C464.104 184.664 464.397 184.643 464.685 184.6C464.984 184.547 465.245 184.456 465.469 184.328C465.704 184.2 465.89 184.019 466.029 183.784C466.168 183.539 466.237 183.224 466.237 182.84C466.237 182.456 466.168 182.147 466.029 181.912C465.89 181.667 465.704 181.48 465.469 181.352C465.245 181.224 464.984 181.139 464.685 181.096C464.397 181.043 464.104 181.016 463.805 181.016H461.789V184.664ZM473.586 179.672H474.978L479.826 191H478.034L476.898 188.2H471.506L470.386 191H468.594L473.586 179.672ZM476.338 186.856L474.226 181.656H474.194L472.05 186.856H476.338ZM482.784 186.168L478.496 179.672H480.464L483.552 184.648L486.736 179.672H488.608L484.32 186.168V191H482.784V186.168ZM494.698 188.632C494.976 189.048 495.328 189.357 495.754 189.56C496.192 189.752 496.64 189.848 497.098 189.848C497.354 189.848 497.616 189.811 497.882 189.736C498.149 189.651 498.389 189.528 498.602 189.368C498.826 189.208 499.008 189.011 499.146 188.776C499.285 188.541 499.354 188.269 499.354 187.96C499.354 187.523 499.216 187.192 498.938 186.968C498.661 186.733 498.314 186.541 497.898 186.392C497.493 186.232 497.045 186.083 496.554 185.944C496.074 185.795 495.626 185.592 495.21 185.336C494.805 185.08 494.464 184.739 494.186 184.312C493.909 183.875 493.77 183.288 493.77 182.552C493.77 182.221 493.84 181.869 493.978 181.496C494.128 181.123 494.357 180.781 494.666 180.472C494.976 180.163 495.37 179.907 495.85 179.704C496.341 179.491 496.928 179.384 497.61 179.384C498.229 179.384 498.821 179.469 499.386 179.64C499.952 179.811 500.448 180.157 500.874 180.68L499.626 181.816C499.434 181.517 499.162 181.277 498.81 181.096C498.458 180.915 498.058 180.824 497.61 180.824C497.184 180.824 496.826 180.883 496.538 181C496.261 181.107 496.037 181.251 495.866 181.432C495.696 181.603 495.573 181.789 495.498 181.992C495.434 182.195 495.402 182.381 495.402 182.552C495.402 183.032 495.541 183.4 495.818 183.656C496.096 183.912 496.437 184.12 496.842 184.28C497.258 184.44 497.706 184.584 498.186 184.712C498.677 184.84 499.125 185.021 499.53 185.256C499.946 185.48 500.293 185.789 500.57 186.184C500.848 186.568 500.986 187.101 500.986 187.784C500.986 188.328 500.88 188.819 500.666 189.256C500.464 189.693 500.186 190.061 499.834 190.36C499.482 190.659 499.066 190.888 498.586 191.048C498.106 191.208 497.594 191.288 497.05 191.288C496.325 191.288 495.637 191.16 494.986 190.904C494.336 190.648 493.818 190.253 493.434 189.72L494.698 188.632ZM506.805 179.672H508.197L513.045 191H511.253L510.117 188.2H504.725L503.605 191H501.813L506.805 179.672ZM509.557 186.856L507.445 181.656H507.413L505.269 186.856H509.557ZM514.519 179.672H516.535L522.775 188.984H522.807V179.672H524.343V191H522.391L516.087 181.688H516.055V191H514.519V179.672ZM526.997 179.672H530.949C531.749 179.672 532.448 179.763 533.045 179.944C533.653 180.125 534.176 180.371 534.613 180.68C535.061 180.979 535.429 181.325 535.717 181.72C536.016 182.115 536.25 182.52 536.421 182.936C536.592 183.352 536.714 183.768 536.789 184.184C536.864 184.6 536.901 184.984 536.901 185.336C536.901 186.061 536.768 186.765 536.501 187.448C536.234 188.12 535.84 188.723 535.317 189.256C534.794 189.779 534.144 190.2 533.365 190.52C532.597 190.84 531.706 191 530.693 191H526.997V179.672ZM528.533 189.56H530.469C531.12 189.56 531.733 189.475 532.309 189.304C532.896 189.123 533.408 188.856 533.845 188.504C534.282 188.152 534.629 187.715 534.885 187.192C535.141 186.659 535.269 186.04 535.269 185.336C535.269 184.973 535.21 184.552 535.093 184.072C534.976 183.581 534.752 183.117 534.421 182.68C534.101 182.243 533.653 181.875 533.077 181.576C532.501 181.267 531.754 181.112 530.837 181.112H528.533V189.56Z" fill="black"/>
<rect x="424" width="140" height="140" rx="70" fill="#F4F4F4"/>
<path opacity="0.7" d="M235.886 179.672H239.87C240.595 179.672 241.192 179.773 241.662 179.976C242.131 180.168 242.499 180.419 242.766 180.728C243.043 181.027 243.235 181.368 243.342 181.752C243.448 182.125 243.502 182.488 243.502 182.84C243.502 183.203 243.438 183.555 243.31 183.896C243.182 184.227 242.995 184.531 242.75 184.808C242.515 185.075 242.222 185.304 241.87 185.496C241.528 185.677 241.144 185.789 240.718 185.832L243.934 191H242.014L239.134 186.008H237.422V191H235.886V179.672ZM237.422 184.664H239.438C239.736 184.664 240.03 184.643 240.318 184.6C240.616 184.547 240.878 184.456 241.102 184.328C241.336 184.2 241.523 184.019 241.662 183.784C241.8 183.539 241.87 183.224 241.87 182.84C241.87 182.456 241.8 182.147 241.662 181.912C241.523 181.667 241.336 181.48 241.102 181.352C240.878 181.224 240.616 181.139 240.318 181.096C240.03 181.043 239.736 181.016 239.438 181.016H237.422V184.664ZM250.867 191.288C250.003 191.288 249.208 191.139 248.483 190.84C247.758 190.531 247.134 190.109 246.611 189.576C246.099 189.043 245.694 188.413 245.395 187.688C245.107 186.963 244.963 186.179 244.963 185.336C244.963 184.493 245.107 183.709 245.395 182.984C245.694 182.259 246.099 181.629 246.611 181.096C247.134 180.563 247.758 180.147 248.483 179.848C249.208 179.539 250.003 179.384 250.867 179.384C251.731 179.384 252.526 179.539 253.251 179.848C253.976 180.147 254.595 180.563 255.107 181.096C255.63 181.629 256.035 182.259 256.323 182.984C256.622 183.709 256.771 184.493 256.771 185.336C256.771 186.179 256.622 186.963 256.323 187.688C256.035 188.413 255.63 189.043 255.107 189.576C254.595 190.109 253.976 190.531 253.251 190.84C252.526 191.139 251.731 191.288 250.867 191.288ZM250.867 189.848C251.518 189.848 252.104 189.731 252.627 189.496C253.15 189.251 253.598 188.925 253.971 188.52C254.344 188.115 254.632 187.64 254.835 187.096C255.038 186.541 255.139 185.955 255.139 185.336C255.139 184.717 255.038 184.136 254.835 183.592C254.632 183.037 254.344 182.557 253.971 182.152C253.598 181.747 253.15 181.427 252.627 181.192C252.104 180.947 251.518 180.824 250.867 180.824C250.216 180.824 249.63 180.947 249.107 181.192C248.584 181.427 248.136 181.747 247.763 182.152C247.39 182.557 247.102 183.037 246.899 183.592C246.696 184.136 246.595 184.717 246.595 185.336C246.595 185.955 246.696 186.541 246.899 187.096C247.102 187.64 247.39 188.115 247.763 188.52C248.136 188.925 248.584 189.251 249.107 189.496C249.63 189.731 250.216 189.848 250.867 189.848ZM261.651 186.168L257.363 179.672H259.331L262.419 184.648L265.603 179.672H267.475L263.187 186.168V191H261.651V186.168ZM271.141 179.672H272.533L277.381 191H275.589L274.453 188.2H269.061L267.941 191H266.149L271.141 179.672ZM273.893 186.856L271.781 181.656H271.749L269.605 186.856H273.893ZM278.854 179.672H280.39V189.56H285.59V191H278.854V179.672ZM291.604 179.672H295.54C296.031 179.672 296.484 179.731 296.9 179.848C297.327 179.965 297.69 180.141 297.988 180.376C298.298 180.6 298.538 180.893 298.708 181.256C298.89 181.608 298.98 182.024 298.98 182.504C298.98 183.155 298.799 183.688 298.436 184.104C298.074 184.509 297.604 184.808 297.028 185V185.032C297.37 185.053 297.69 185.144 297.988 185.304C298.287 185.453 298.543 185.656 298.756 185.912C298.98 186.157 299.156 186.445 299.284 186.776C299.412 187.107 299.476 187.464 299.476 187.848C299.476 188.36 299.37 188.813 299.156 189.208C298.954 189.592 298.671 189.917 298.308 190.184C297.946 190.451 297.524 190.653 297.044 190.792C296.564 190.931 296.047 191 295.492 191H291.604V179.672ZM293.14 184.376H295.236C295.524 184.376 295.796 184.349 296.052 184.296C296.308 184.232 296.532 184.131 296.724 183.992C296.916 183.853 297.066 183.677 297.172 183.464C297.29 183.251 297.348 182.989 297.348 182.68C297.348 182.232 297.204 181.843 296.916 181.512C296.628 181.181 296.175 181.016 295.556 181.016H293.14V184.376ZM293.14 189.656H295.396C295.631 189.656 295.887 189.635 296.164 189.592C296.452 189.539 296.719 189.443 296.964 189.304C297.21 189.155 297.418 188.957 297.588 188.712C297.759 188.467 297.844 188.141 297.844 187.736C297.844 187.064 297.626 186.563 297.188 186.232C296.751 185.891 296.159 185.72 295.412 185.72H293.14V189.656ZM301.683 179.672H303.219V189.56H308.419V191H301.683V179.672ZM311.307 179.672V186.616C311.307 186.968 311.355 187.336 311.451 187.72C311.547 188.093 311.707 188.44 311.931 188.76C312.155 189.08 312.449 189.341 312.811 189.544C313.174 189.747 313.622 189.848 314.155 189.848C314.689 189.848 315.137 189.747 315.499 189.544C315.862 189.341 316.155 189.08 316.379 188.76C316.603 188.44 316.763 188.093 316.859 187.72C316.955 187.336 317.003 186.968 317.003 186.616V179.672H318.539V186.856C318.539 187.517 318.427 188.12 318.203 188.664C317.979 189.197 317.67 189.661 317.275 190.056C316.881 190.451 316.417 190.755 315.883 190.968C315.35 191.181 314.774 191.288 314.155 191.288C313.537 191.288 312.961 191.181 312.427 190.968C311.894 190.755 311.43 190.451 311.035 190.056C310.641 189.661 310.331 189.197 310.107 188.664C309.883 188.12 309.771 187.517 309.771 186.856V179.672H311.307ZM321.245 179.672H328.557V181.112H322.781V184.488H328.157V185.928H322.781V189.56H328.845V191H321.245V179.672Z" fill="black"/>
<rect x="212" width="140" height="140" rx="70" fill="#3E64FF"/>
<path opacity="0.7" d="M24.6748 179.672H26.6908L32.9308 188.984H32.9628V179.672H34.4988V191H32.5468L26.2428 181.688H26.2108V191H24.6748V179.672ZM37.4091 179.672H38.9451V191H37.4091V179.672ZM51.5103 184.664V190.248C51.2329 190.419 50.9183 190.568 50.5663 190.696C50.2143 190.824 49.8463 190.931 49.4623 191.016C49.0889 191.112 48.7049 191.181 48.3103 191.224C47.9263 191.267 47.5636 191.288 47.2223 191.288C46.2623 191.288 45.4036 191.128 44.6463 190.808C43.8996 190.488 43.2649 190.056 42.7423 189.512C42.2303 188.968 41.8356 188.339 41.5583 187.624C41.2916 186.899 41.1583 186.136 41.1583 185.336C41.1583 184.493 41.3023 183.709 41.5903 182.984C41.8889 182.259 42.2943 181.629 42.8063 181.096C43.3289 180.563 43.9529 180.147 44.6783 179.848C45.4036 179.539 46.1983 179.384 47.0623 179.384C48.1076 179.384 48.9609 179.517 49.6223 179.784C50.2836 180.04 50.8383 180.397 51.2863 180.856L50.1983 182.024C49.7289 181.576 49.2329 181.267 48.7103 181.096C48.1876 180.915 47.6383 180.824 47.0623 180.824C46.4116 180.824 45.8249 180.947 45.3023 181.192C44.7796 181.427 44.3316 181.747 43.9583 182.152C43.5849 182.557 43.2969 183.037 43.0943 183.592C42.8916 184.136 42.7903 184.717 42.7903 185.336C42.7903 185.976 42.9023 186.573 43.1263 187.128C43.3503 187.672 43.6596 188.147 44.0543 188.552C44.4489 188.957 44.9129 189.277 45.4463 189.512C45.9796 189.736 46.5609 189.848 47.1903 189.848C47.7343 189.848 48.2463 189.8 48.7263 189.704C49.2169 189.597 49.6329 189.448 49.9743 189.256V186.104H47.4623V184.664H51.5103ZM54.3154 179.672H55.8514V184.376H61.7234V179.672H63.2594V191H61.7234V185.816H55.8514V191H54.3154V179.672ZM68.5428 181.112H64.8948V179.672H73.7268V181.112H70.0788V191H68.5428V181.112ZM79.8154 179.672H83.7514C84.242 179.672 84.6954 179.731 85.1114 179.848C85.538 179.965 85.9007 180.141 86.1994 180.376C86.5087 180.6 86.7487 180.893 86.9194 181.256C87.1007 181.608 87.1914 182.024 87.1914 182.504C87.1914 183.155 87.01 183.688 86.6474 184.104C86.2847 184.509 85.8154 184.808 85.2394 185V185.032C85.5807 185.053 85.9007 185.144 86.1994 185.304C86.498 185.453 86.754 185.656 86.9674 185.912C87.1914 186.157 87.3674 186.445 87.4954 186.776C87.6234 187.107 87.6874 187.464 87.6874 187.848C87.6874 188.36 87.5807 188.813 87.3674 189.208C87.1647 189.592 86.882 189.917 86.5194 190.184C86.1567 190.451 85.7354 190.653 85.2554 190.792C84.7754 190.931 84.258 191 83.7034 191H79.8154V179.672ZM81.3514 184.376H83.4474C83.7354 184.376 84.0074 184.349 84.2634 184.296C84.5194 184.232 84.7434 184.131 84.9354 183.992C85.1274 183.853 85.2767 183.677 85.3834 183.464C85.5007 183.251 85.5594 182.989 85.5594 182.68C85.5594 182.232 85.4154 181.843 85.1274 181.512C84.8394 181.181 84.386 181.016 83.7674 181.016H81.3514V184.376ZM81.3514 189.656H83.6074C83.842 189.656 84.098 189.635 84.3754 189.592C84.6634 189.539 84.93 189.443 85.1754 189.304C85.4207 189.155 85.6287 188.957 85.7994 188.712C85.97 188.467 86.0554 188.141 86.0554 187.736C86.0554 187.064 85.8367 186.563 85.3994 186.232C84.962 185.891 84.37 185.72 83.6234 185.72H81.3514V189.656ZM89.8935 179.672H91.4295V189.56H96.6295V191H89.8935V179.672ZM99.5184 179.672V186.616C99.5184 186.968 99.5664 187.336 99.6624 187.72C99.7584 188.093 99.9184 188.44 100.142 188.76C100.366 189.08 100.66 189.341 101.022 189.544C101.385 189.747 101.833 189.848 102.366 189.848C102.9 189.848 103.348 189.747 103.71 189.544C104.073 189.341 104.366 189.08 104.59 188.76C104.814 188.44 104.974 188.093 105.07 187.72C105.166 187.336 105.214 186.968 105.214 186.616V179.672H106.75V186.856C106.75 187.517 106.638 188.12 106.414 188.664C106.19 189.197 105.881 189.661 105.486 190.056C105.092 190.451 104.628 190.755 104.094 190.968C103.561 191.181 102.985 191.288 102.366 191.288C101.748 191.288 101.172 191.181 100.638 190.968C100.105 190.755 99.641 190.451 99.2464 190.056C98.8517 189.661 98.5424 189.197 98.3184 188.664C98.0944 188.12 97.9824 187.517 97.9824 186.856V179.672H99.5184ZM109.456 179.672H116.768V181.112H110.992V184.488H116.368V185.928H110.992V189.56H117.056V191H109.456V179.672Z" fill="black"/>
<rect width="140" height="140" rx="70" fill="#3C59D5"/>
</svg>
