<svg width="1300" height="800" viewBox="0 0 1300 800" fill="none" xmlns="http://www.w3.org/2000/svg">
<rect width="1300" height="800" fill="white"/>
<rect x="650" y="400" width="650" height="400" fill="#3F64FF"/>
<path d="M810 651.52H818.28L826.26 682.12H826.38L835.92 651.52H843.36L852.72 682.12H852.84L861.18 651.52H868.86L856.5 694H849.3L839.46 661.66H839.34L829.5 694H822.54L810 651.52ZM888.74 690.04H888.56C887.52 691.68 886.2 692.88 884.6 693.64C883 694.36 881.24 694.72 879.32 694.72C878 694.72 876.7 694.54 875.42 694.18C874.18 693.82 873.06 693.28 872.06 692.56C871.1 691.84 870.32 690.94 869.72 689.86C869.12 688.78 868.82 687.52 868.82 686.08C868.82 684.52 869.1 683.2 869.66 682.12C870.22 681 870.96 680.08 871.88 679.36C872.84 678.6 873.94 678 875.18 677.56C876.42 677.12 877.7 676.8 879.02 676.6C880.38 676.36 881.74 676.22 883.1 676.18C884.46 676.1 885.74 676.06 886.94 676.06H888.74V675.28C888.74 673.48 888.12 672.14 886.88 671.26C885.64 670.34 884.06 669.88 882.14 669.88C880.62 669.88 879.2 670.16 877.88 670.72C876.56 671.24 875.42 671.96 874.46 672.88L870.68 669.1C872.28 667.46 874.14 666.28 876.26 665.56C878.42 664.84 880.64 664.48 882.92 664.48C884.96 664.48 886.68 664.72 888.08 665.2C889.48 665.64 890.64 666.22 891.56 666.94C892.48 667.66 893.18 668.5 893.66 669.46C894.18 670.38 894.54 671.32 894.74 672.28C894.98 673.24 895.12 674.18 895.16 675.1C895.2 675.98 895.22 676.76 895.22 677.44V694H888.74V690.04ZM888.32 681.1H886.82C885.82 681.1 884.7 681.14 883.46 681.22C882.22 681.3 881.04 681.5 879.92 681.82C878.84 682.1 877.92 682.54 877.16 683.14C876.4 683.7 876.02 684.5 876.02 685.54C876.02 686.22 876.16 686.8 876.44 687.28C876.76 687.72 877.16 688.1 877.64 688.42C878.12 688.74 878.66 688.98 879.26 689.14C879.86 689.26 880.46 689.32 881.06 689.32C883.54 689.32 885.36 688.74 886.52 687.58C887.72 686.38 888.32 684.76 888.32 682.72V681.1ZM899.607 671.32V665.2H905.547V656.86H912.747V665.2H920.667V671.32H912.747V683.92C912.747 685.36 913.007 686.5 913.527 687.34C914.087 688.18 915.167 688.6 916.767 688.6C917.407 688.6 918.107 688.54 918.867 688.42C919.627 688.26 920.227 688.02 920.667 687.7V693.76C919.907 694.12 918.967 694.36 917.847 694.48C916.767 694.64 915.807 694.72 914.967 694.72C913.047 694.72 911.467 694.5 910.227 694.06C909.027 693.66 908.067 693.04 907.347 692.2C906.667 691.32 906.187 690.24 905.907 688.96C905.667 687.68 905.547 686.2 905.547 684.52V671.32H899.607ZM932.047 682.12C932.287 684.28 933.127 685.96 934.567 687.16C936.007 688.36 937.747 688.96 939.787 688.96C941.587 688.96 943.087 688.6 944.287 687.88C945.527 687.12 946.607 686.18 947.527 685.06L952.687 688.96C951.007 691.04 949.127 692.52 947.047 693.4C944.967 694.28 942.787 694.72 940.507 694.72C938.347 694.72 936.307 694.36 934.387 693.64C932.467 692.92 930.807 691.9 929.407 690.58C928.007 689.26 926.887 687.68 926.047 685.84C925.247 683.96 924.847 681.88 924.847 679.6C924.847 677.32 925.247 675.26 926.047 673.42C926.887 671.54 928.007 669.94 929.407 668.62C930.807 667.3 932.467 666.28 934.387 665.56C936.307 664.84 938.347 664.48 940.507 664.48C942.507 664.48 944.327 664.84 945.967 665.56C947.647 666.24 949.067 667.24 950.227 668.56C951.427 669.88 952.347 671.52 952.987 673.48C953.667 675.4 954.007 677.62 954.007 680.14V682.12H932.047ZM946.807 676.72C946.767 674.6 946.107 672.94 944.827 671.74C943.547 670.5 941.767 669.88 939.487 669.88C937.327 669.88 935.607 670.5 934.327 671.74C933.087 672.98 932.327 674.64 932.047 676.72H946.807ZM960.74 665.2H967.94V669.76H968.06C968.86 668.08 970 666.78 971.48 665.86C972.96 664.94 974.66 664.48 976.58 664.48C977.02 664.48 977.44 664.52 977.84 664.6C978.28 664.68 978.72 664.78 979.16 664.9V671.86C978.56 671.7 977.96 671.58 977.36 671.5C976.8 671.38 976.24 671.32 975.68 671.32C974 671.32 972.64 671.64 971.6 672.28C970.6 672.88 969.82 673.58 969.26 674.38C968.74 675.18 968.38 675.98 968.18 676.78C968.02 677.58 967.94 678.18 967.94 678.58V694H960.74V665.2ZM999.42 673.18C998.02 671.22 996.14 670.24 993.78 670.24C992.82 670.24 991.88 670.48 990.96 670.96C990.04 671.44 989.58 672.22 989.58 673.3C989.58 674.18 989.96 674.82 990.72 675.22C991.48 675.62 992.44 675.96 993.6 676.24C994.76 676.52 996 676.82 997.32 677.14C998.68 677.42 999.94 677.88 1001.1 678.52C1002.26 679.12 1003.22 679.96 1003.98 681.04C1004.74 682.12 1005.12 683.6 1005.12 685.48C1005.12 687.2 1004.74 688.66 1003.98 689.86C1003.26 691.02 1002.3 691.96 1001.1 692.68C999.94 693.4 998.62 693.92 997.14 694.24C995.66 694.56 994.18 694.72 992.7 694.72C990.46 694.72 988.4 694.4 986.52 693.76C984.64 693.12 982.96 691.96 981.48 690.28L986.28 685.78C987.2 686.82 988.18 687.68 989.22 688.36C990.3 689 991.6 689.32 993.12 689.32C993.64 689.32 994.18 689.26 994.74 689.14C995.3 689.02 995.82 688.82 996.3 688.54C996.78 688.26 997.16 687.92 997.44 687.52C997.76 687.08 997.92 686.58 997.92 686.02C997.92 685.02 997.54 684.28 996.78 683.8C996.02 683.32 995.06 682.94 993.9 682.66C992.74 682.34 991.48 682.06 990.12 681.82C988.8 681.54 987.56 681.12 986.4 680.56C985.24 679.96 984.28 679.14 983.52 678.1C982.76 677.06 982.38 675.62 982.38 673.78C982.38 672.18 982.7 670.8 983.34 669.64C984.02 668.44 984.9 667.46 985.98 666.7C987.06 665.94 988.3 665.38 989.7 665.02C991.1 664.66 992.52 664.48 993.96 664.48C995.88 664.48 997.78 664.82 999.66 665.5C1001.54 666.14 1003.06 667.26 1004.22 668.86L999.42 673.18ZM1030.4 673.84C1029.56 672.96 1028.68 672.26 1027.76 671.74C1026.84 671.22 1025.9 670.96 1024.94 670.96C1023.62 670.96 1022.44 671.2 1021.4 671.68C1020.36 672.16 1019.46 672.8 1018.7 673.6C1017.98 674.4 1017.42 675.32 1017.02 676.36C1016.66 677.4 1016.48 678.48 1016.48 679.6C1016.48 680.72 1016.66 681.8 1017.02 682.84C1017.42 683.88 1017.98 684.8 1018.7 685.6C1019.46 686.4 1020.36 687.04 1021.4 687.52C1022.44 688 1023.62 688.24 1024.94 688.24C1026.06 688.24 1027.1 688.02 1028.06 687.58C1029.02 687.1 1029.84 686.42 1030.52 685.54L1035.32 690.7C1034.6 691.42 1033.76 692.04 1032.8 692.56C1031.88 693.08 1030.94 693.5 1029.98 693.82C1029.02 694.14 1028.1 694.36 1027.22 694.48C1026.34 694.64 1025.58 694.72 1024.94 694.72C1022.78 694.72 1020.74 694.36 1018.82 693.64C1016.9 692.92 1015.24 691.9 1013.84 690.58C1012.44 689.26 1011.32 687.68 1010.48 685.84C1009.68 683.96 1009.28 681.88 1009.28 679.6C1009.28 677.32 1009.68 675.26 1010.48 673.42C1011.32 671.54 1012.44 669.94 1013.84 668.62C1015.24 667.3 1016.9 666.28 1018.82 665.56C1020.74 664.84 1022.78 664.48 1024.94 664.48C1026.78 664.48 1028.62 664.84 1030.46 665.56C1032.34 666.24 1033.98 667.34 1035.38 668.86L1030.4 673.84ZM1057.67 690.04H1057.49C1056.45 691.68 1055.13 692.88 1053.53 693.64C1051.93 694.36 1050.17 694.72 1048.25 694.72C1046.93 694.72 1045.63 694.54 1044.35 694.18C1043.11 693.82 1041.99 693.28 1040.99 692.56C1040.03 691.84 1039.25 690.94 1038.65 689.86C1038.05 688.78 1037.75 687.52 1037.75 686.08C1037.75 684.52 1038.03 683.2 1038.59 682.12C1039.15 681 1039.89 680.08 1040.81 679.36C1041.77 678.6 1042.87 678 1044.11 677.56C1045.35 677.12 1046.63 676.8 1047.95 676.6C1049.31 676.36 1050.67 676.22 1052.03 676.18C1053.39 676.1 1054.67 676.06 1055.87 676.06H1057.67V675.28C1057.67 673.48 1057.05 672.14 1055.81 671.26C1054.57 670.34 1052.99 669.88 1051.07 669.88C1049.55 669.88 1048.13 670.16 1046.81 670.72C1045.49 671.24 1044.35 671.96 1043.39 672.88L1039.61 669.1C1041.21 667.46 1043.07 666.28 1045.19 665.56C1047.35 664.84 1049.57 664.48 1051.85 664.48C1053.89 664.48 1055.61 664.72 1057.01 665.2C1058.41 665.64 1059.57 666.22 1060.49 666.94C1061.41 667.66 1062.11 668.5 1062.59 669.46C1063.11 670.38 1063.47 671.32 1063.67 672.28C1063.91 673.24 1064.05 674.18 1064.09 675.1C1064.13 675.98 1064.15 676.76 1064.15 677.44V694H1057.67V690.04ZM1057.25 681.1H1055.75C1054.75 681.1 1053.63 681.14 1052.39 681.22C1051.15 681.3 1049.97 681.5 1048.85 681.82C1047.77 682.1 1046.85 682.54 1046.09 683.14C1045.33 683.7 1044.95 684.5 1044.95 685.54C1044.95 686.22 1045.09 686.8 1045.37 687.28C1045.69 687.72 1046.09 688.1 1046.57 688.42C1047.05 688.74 1047.59 688.98 1048.19 689.14C1048.79 689.26 1049.39 689.32 1049.99 689.32C1052.47 689.32 1054.29 688.74 1055.45 687.58C1056.65 686.38 1057.25 684.76 1057.25 682.72V681.1ZM1071.89 665.2H1078.73V669.52H1078.85C1079.89 667.76 1081.29 666.48 1083.05 665.68C1084.81 664.88 1086.71 664.48 1088.75 664.48C1090.95 664.48 1092.93 664.88 1094.69 665.68C1096.45 666.44 1097.95 667.5 1099.19 668.86C1100.43 670.22 1101.37 671.82 1102.01 673.66C1102.65 675.5 1102.97 677.48 1102.97 679.6C1102.97 681.72 1102.63 683.7 1101.95 685.54C1101.27 687.38 1100.31 688.98 1099.07 690.34C1097.87 691.7 1096.41 692.78 1094.69 693.58C1092.97 694.34 1091.09 694.72 1089.05 694.72C1087.69 694.72 1086.49 694.58 1085.45 694.3C1084.41 694.02 1083.49 693.66 1082.69 693.22C1081.89 692.78 1081.21 692.32 1080.65 691.84C1080.09 691.32 1079.63 690.82 1079.27 690.34H1079.09V707.68H1071.89V665.2ZM1095.77 679.6C1095.77 678.48 1095.57 677.4 1095.17 676.36C1094.81 675.32 1094.25 674.4 1093.49 673.6C1092.77 672.8 1091.89 672.16 1090.85 671.68C1089.81 671.2 1088.63 670.96 1087.31 670.96C1085.99 670.96 1084.81 671.2 1083.77 671.68C1082.73 672.16 1081.83 672.8 1081.07 673.6C1080.35 674.4 1079.79 675.32 1079.39 676.36C1079.03 677.4 1078.85 678.48 1078.85 679.6C1078.85 680.72 1079.03 681.8 1079.39 682.84C1079.79 683.88 1080.35 684.8 1081.07 685.6C1081.83 686.4 1082.73 687.04 1083.77 687.52C1084.81 688 1085.99 688.24 1087.31 688.24C1088.63 688.24 1089.81 688 1090.85 687.52C1091.89 687.04 1092.77 686.4 1093.49 685.6C1094.25 684.8 1094.81 683.88 1095.17 682.84C1095.57 681.8 1095.77 680.72 1095.77 679.6ZM1115.45 682.12C1115.69 684.28 1116.53 685.96 1117.97 687.16C1119.41 688.36 1121.15 688.96 1123.19 688.96C1124.99 688.96 1126.49 688.6 1127.69 687.88C1128.93 687.12 1130.01 686.18 1130.93 685.06L1136.09 688.96C1134.41 691.04 1132.53 692.52 1130.45 693.4C1128.37 694.28 1126.19 694.72 1123.91 694.72C1121.75 694.72 1119.71 694.36 1117.79 693.64C1115.87 692.92 1114.21 691.9 1112.81 690.58C1111.41 689.26 1110.29 687.68 1109.45 685.84C1108.65 683.96 1108.25 681.88 1108.25 679.6C1108.25 677.32 1108.65 675.26 1109.45 673.42C1110.29 671.54 1111.41 669.94 1112.81 668.62C1114.21 667.3 1115.87 666.28 1117.79 665.56C1119.71 664.84 1121.75 664.48 1123.91 664.48C1125.91 664.48 1127.73 664.84 1129.37 665.56C1131.05 666.24 1132.47 667.24 1133.63 668.56C1134.83 669.88 1135.75 671.52 1136.39 673.48C1137.07 675.4 1137.41 677.62 1137.41 680.14V682.12H1115.45ZM1130.21 676.72C1130.17 674.6 1129.51 672.94 1128.23 671.74C1126.95 670.5 1125.17 669.88 1122.89 669.88C1120.73 669.88 1119.01 670.5 1117.73 671.74C1116.49 672.98 1115.73 674.64 1115.45 676.72H1130.21Z" fill="white"/>
<path fill-rule="evenodd" clip-rule="evenodd" d="M1031.22 562.052C1021.99 561.384 1012.84 559.882 1003.87 557.564C995.424 555.452 987.998 553.076 980.191 551.805C972.467 550.155 964.579 549.759 955.881 548.736C946.671 547.868 937.59 545.953 928.814 543.027C922.57 540.755 916.853 537.235 912.013 532.682C910.863 537.135 910.188 541.698 910 546.294C912.743 550.796 916.073 554.914 919.902 558.537C927.362 565.042 935.947 570.131 945.236 573.552C954.443 576.811 963.987 579.025 973.689 580.152C983.579 581.328 993.558 581.576 1003.49 580.895C1013.7 580.26 1023.79 578.461 1033.58 575.532C1034.7 575.202 1035.84 574.872 1036.88 574.509C1038.57 570.476 1039.85 566.287 1040.71 562.002C1037.55 562.184 1034.38 562.2 1031.22 562.052Z" fill="white"/>
<path fill-rule="evenodd" clip-rule="evenodd" d="M962.088 531.922C969.944 532.615 976.859 532.83 983.543 534.562C990.326 535.915 996.664 538.638 1004.06 541.262C1012.1 544.21 1020.43 546.317 1028.91 547.548C1033.25 548.167 1037.62 548.459 1042 548.423C1042 546.558 1041.9 544.694 1041.72 542.846C1036.65 541.942 1031.68 540.577 1026.87 538.77C1018.7 535.434 1011.12 530.804 1004.42 525.058C998.562 520.026 993.676 515.818 988.214 514.333C982.751 512.848 976.661 513.855 969.218 515.538C960.679 517.812 951.83 518.703 943.009 518.178C935.42 517.597 928.013 515.564 921.191 512.188C920.118 513.838 919.112 515.488 918.188 517.138C923.705 521.69 930.032 525.161 936.837 527.368C945.043 529.886 953.52 531.415 962.088 531.922Z" fill="white"/>
<path fill-rule="evenodd" clip-rule="evenodd" d="M976.016 483C958.73 482.978 942.13 489.759 929.805 501.876C935.994 504.378 942.588 505.726 949.263 505.853C958.538 506.199 967.087 503.312 974.019 500.639C980.95 497.966 986.595 496.431 991.579 498.18C996.563 499.929 1000.87 504.45 1005.72 510.324C1010.57 516.198 1017.18 522.369 1025.53 526.445C1030 528.586 1034.7 530.246 1039.52 531.395C1035.68 517.501 1027.39 505.248 1015.92 496.509C1004.45 487.77 990.435 483.026 976.016 483Z" fill="white"/>
<path fill-rule="evenodd" clip-rule="evenodd" d="M976.016 615C986.266 615.009 996.377 612.627 1005.55 608.044C1014.71 603.461 1022.69 596.804 1028.83 588.6C1020.57 591.016 1012.11 592.673 1003.54 593.55C992.198 594.771 980.764 594.964 969.382 594.127C958.287 593.414 947.308 591.449 936.654 588.27C929.786 586.049 923.238 582.937 917.18 579.013C922.715 589.852 931.14 598.949 941.523 605.3C951.907 611.651 963.844 615.008 976.016 615Z" fill="white"/>
<rect y="400" width="650" height="400" fill="#EAF0F6"/>
<path d="M160 651.52H168.28L176.26 682.12H176.38L185.92 651.52H193.36L202.72 682.12H202.84L211.18 651.52H218.86L206.5 694H199.3L189.46 661.66H189.34L179.5 694H172.54L160 651.52ZM238.74 690.04H238.56C237.52 691.68 236.2 692.88 234.6 693.64C233 694.36 231.24 694.72 229.32 694.72C228 694.72 226.7 694.54 225.42 694.18C224.18 693.82 223.06 693.28 222.06 692.56C221.1 691.84 220.32 690.94 219.72 689.86C219.12 688.78 218.82 687.52 218.82 686.08C218.82 684.52 219.1 683.2 219.66 682.12C220.22 681 220.96 680.08 221.88 679.36C222.84 678.6 223.94 678 225.18 677.56C226.42 677.12 227.7 676.8 229.02 676.6C230.38 676.36 231.74 676.22 233.1 676.18C234.46 676.1 235.74 676.06 236.94 676.06H238.74V675.28C238.74 673.48 238.12 672.14 236.88 671.26C235.64 670.34 234.06 669.88 232.14 669.88C230.62 669.88 229.2 670.16 227.88 670.72C226.56 671.24 225.42 671.96 224.46 672.88L220.68 669.1C222.28 667.46 224.14 666.28 226.26 665.56C228.42 664.84 230.64 664.48 232.92 664.48C234.96 664.48 236.68 664.72 238.08 665.2C239.48 665.64 240.64 666.22 241.56 666.94C242.48 667.66 243.18 668.5 243.66 669.46C244.18 670.38 244.54 671.32 244.74 672.28C244.98 673.24 245.12 674.18 245.16 675.1C245.2 675.98 245.22 676.76 245.22 677.44V694H238.74V690.04ZM238.32 681.1H236.82C235.82 681.1 234.7 681.14 233.46 681.22C232.22 681.3 231.04 681.5 229.92 681.82C228.84 682.1 227.92 682.54 227.16 683.14C226.4 683.7 226.02 684.5 226.02 685.54C226.02 686.22 226.16 686.8 226.44 687.28C226.76 687.72 227.16 688.1 227.64 688.42C228.12 688.74 228.66 688.98 229.26 689.14C229.86 689.26 230.46 689.32 231.06 689.32C233.54 689.32 235.36 688.74 236.52 687.58C237.72 686.38 238.32 684.76 238.32 682.72V681.1ZM249.607 671.32V665.2H255.547V656.86H262.747V665.2H270.667V671.32H262.747V683.92C262.747 685.36 263.007 686.5 263.527 687.34C264.087 688.18 265.167 688.6 266.767 688.6C267.407 688.6 268.107 688.54 268.867 688.42C269.627 688.26 270.227 688.02 270.667 687.7V693.76C269.907 694.12 268.967 694.36 267.847 694.48C266.767 694.64 265.807 694.72 264.967 694.72C263.047 694.72 261.467 694.5 260.227 694.06C259.027 693.66 258.067 693.04 257.347 692.2C256.667 691.32 256.187 690.24 255.907 688.96C255.667 687.68 255.547 686.2 255.547 684.52V671.32H249.607ZM282.047 682.12C282.287 684.28 283.127 685.96 284.567 687.16C286.007 688.36 287.747 688.96 289.787 688.96C291.587 688.96 293.087 688.6 294.287 687.88C295.527 687.12 296.607 686.18 297.527 685.06L302.687 688.96C301.007 691.04 299.127 692.52 297.047 693.4C294.967 694.28 292.787 694.72 290.507 694.72C288.347 694.72 286.307 694.36 284.387 693.64C282.467 692.92 280.807 691.9 279.407 690.58C278.007 689.26 276.887 687.68 276.047 685.84C275.247 683.96 274.847 681.88 274.847 679.6C274.847 677.32 275.247 675.26 276.047 673.42C276.887 671.54 278.007 669.94 279.407 668.62C280.807 667.3 282.467 666.28 284.387 665.56C286.307 664.84 288.347 664.48 290.507 664.48C292.507 664.48 294.327 664.84 295.967 665.56C297.647 666.24 299.067 667.24 300.227 668.56C301.427 669.88 302.347 671.52 302.987 673.48C303.667 675.4 304.007 677.62 304.007 680.14V682.12H282.047ZM296.807 676.72C296.767 674.6 296.107 672.94 294.827 671.74C293.547 670.5 291.767 669.88 289.487 669.88C287.327 669.88 285.607 670.5 284.327 671.74C283.087 672.98 282.327 674.64 282.047 676.72H296.807ZM310.74 665.2H317.94V669.76H318.06C318.86 668.08 320 666.78 321.48 665.86C322.96 664.94 324.66 664.48 326.58 664.48C327.02 664.48 327.44 664.52 327.84 664.6C328.28 664.68 328.72 664.78 329.16 664.9V671.86C328.56 671.7 327.96 671.58 327.36 671.5C326.8 671.38 326.24 671.32 325.68 671.32C324 671.32 322.64 671.64 321.6 672.28C320.6 672.88 319.82 673.58 319.26 674.38C318.74 675.18 318.38 675.98 318.18 676.78C318.02 677.58 317.94 678.18 317.94 678.58V694H310.74V665.2ZM349.42 673.18C348.02 671.22 346.14 670.24 343.78 670.24C342.82 670.24 341.88 670.48 340.96 670.96C340.04 671.44 339.58 672.22 339.58 673.3C339.58 674.18 339.96 674.82 340.72 675.22C341.48 675.62 342.44 675.96 343.6 676.24C344.76 676.52 346 676.82 347.32 677.14C348.68 677.42 349.94 677.88 351.1 678.52C352.26 679.12 353.22 679.96 353.98 681.04C354.74 682.12 355.12 683.6 355.12 685.48C355.12 687.2 354.74 688.66 353.98 689.86C353.26 691.02 352.3 691.96 351.1 692.68C349.94 693.4 348.62 693.92 347.14 694.24C345.66 694.56 344.18 694.72 342.7 694.72C340.46 694.72 338.4 694.4 336.52 693.76C334.64 693.12 332.96 691.96 331.48 690.28L336.28 685.78C337.2 686.82 338.18 687.68 339.22 688.36C340.3 689 341.6 689.32 343.12 689.32C343.64 689.32 344.18 689.26 344.74 689.14C345.3 689.02 345.82 688.82 346.3 688.54C346.78 688.26 347.16 687.92 347.44 687.52C347.76 687.08 347.92 686.58 347.92 686.02C347.92 685.02 347.54 684.28 346.78 683.8C346.02 683.32 345.06 682.94 343.9 682.66C342.74 682.34 341.48 682.06 340.12 681.82C338.8 681.54 337.56 681.12 336.4 680.56C335.24 679.96 334.28 679.14 333.52 678.1C332.76 677.06 332.38 675.62 332.38 673.78C332.38 672.18 332.7 670.8 333.34 669.64C334.02 668.44 334.9 667.46 335.98 666.7C337.06 665.94 338.3 665.38 339.7 665.02C341.1 664.66 342.52 664.48 343.96 664.48C345.88 664.48 347.78 664.82 349.66 665.5C351.54 666.14 353.06 667.26 354.22 668.86L349.42 673.18ZM380.401 673.84C379.561 672.96 378.681 672.26 377.761 671.74C376.841 671.22 375.901 670.96 374.941 670.96C373.621 670.96 372.441 671.2 371.401 671.68C370.361 672.16 369.461 672.8 368.701 673.6C367.981 674.4 367.421 675.32 367.021 676.36C366.661 677.4 366.481 678.48 366.481 679.6C366.481 680.72 366.661 681.8 367.021 682.84C367.421 683.88 367.981 684.8 368.701 685.6C369.461 686.4 370.361 687.04 371.401 687.52C372.441 688 373.621 688.24 374.941 688.24C376.061 688.24 377.101 688.02 378.061 687.58C379.021 687.1 379.841 686.42 380.521 685.54L385.321 690.7C384.601 691.42 383.761 692.04 382.801 692.56C381.881 693.08 380.941 693.5 379.981 693.82C379.021 694.14 378.101 694.36 377.221 694.48C376.341 694.64 375.581 694.72 374.941 694.72C372.781 694.72 370.741 694.36 368.821 693.64C366.901 692.92 365.241 691.9 363.841 690.58C362.441 689.26 361.321 687.68 360.481 685.84C359.681 683.96 359.281 681.88 359.281 679.6C359.281 677.32 359.681 675.26 360.481 673.42C361.321 671.54 362.441 669.94 363.841 668.62C365.241 667.3 366.901 666.28 368.821 665.56C370.741 664.84 372.781 664.48 374.941 664.48C376.781 664.48 378.621 664.84 380.461 665.56C382.341 666.24 383.981 667.34 385.381 668.86L380.401 673.84ZM407.666 690.04H407.486C406.446 691.68 405.126 692.88 403.526 693.64C401.926 694.36 400.166 694.72 398.246 694.72C396.926 694.72 395.626 694.54 394.346 694.18C393.106 693.82 391.986 693.28 390.986 692.56C390.026 691.84 389.246 690.94 388.646 689.86C388.046 688.78 387.746 687.52 387.746 686.08C387.746 684.52 388.026 683.2 388.586 682.12C389.146 681 389.886 680.08 390.806 679.36C391.766 678.6 392.866 678 394.106 677.56C395.346 677.12 396.626 676.8 397.946 676.6C399.306 676.36 400.666 676.22 402.026 676.18C403.386 676.1 404.666 676.06 405.866 676.06H407.666V675.28C407.666 673.48 407.046 672.14 405.806 671.26C404.566 670.34 402.986 669.88 401.066 669.88C399.546 669.88 398.126 670.16 396.806 670.72C395.486 671.24 394.346 671.96 393.386 672.88L389.606 669.1C391.206 667.46 393.066 666.28 395.186 665.56C397.346 664.84 399.566 664.48 401.846 664.48C403.886 664.48 405.606 664.72 407.006 665.2C408.406 665.64 409.566 666.22 410.486 666.94C411.406 667.66 412.106 668.5 412.586 669.46C413.106 670.38 413.466 671.32 413.666 672.28C413.906 673.24 414.046 674.18 414.086 675.1C414.126 675.98 414.146 676.76 414.146 677.44V694H407.666V690.04ZM407.246 681.1H405.746C404.746 681.1 403.626 681.14 402.386 681.22C401.146 681.3 399.966 681.5 398.846 681.82C397.766 682.1 396.846 682.54 396.086 683.14C395.326 683.7 394.946 684.5 394.946 685.54C394.946 686.22 395.086 686.8 395.366 687.28C395.686 687.72 396.086 688.1 396.566 688.42C397.046 688.74 397.586 688.98 398.186 689.14C398.786 689.26 399.386 689.32 399.986 689.32C402.466 689.32 404.286 688.74 405.446 687.58C406.646 686.38 407.246 684.76 407.246 682.72V681.1ZM421.893 665.2H428.733V669.52H428.853C429.893 667.76 431.293 666.48 433.053 665.68C434.813 664.88 436.713 664.48 438.753 664.48C440.953 664.48 442.933 664.88 444.693 665.68C446.453 666.44 447.953 667.5 449.193 668.86C450.433 670.22 451.373 671.82 452.013 673.66C452.653 675.5 452.973 677.48 452.973 679.6C452.973 681.72 452.633 683.7 451.953 685.54C451.273 687.38 450.313 688.98 449.073 690.34C447.873 691.7 446.413 692.78 444.693 693.58C442.973 694.34 441.093 694.72 439.053 694.72C437.693 694.72 436.493 694.58 435.452 694.3C434.413 694.02 433.493 693.66 432.693 693.22C431.893 692.78 431.213 692.32 430.653 691.84C430.093 691.32 429.633 690.82 429.273 690.34H429.093V707.68H421.893V665.2ZM445.773 679.6C445.773 678.48 445.573 677.4 445.173 676.36C444.813 675.32 444.253 674.4 443.493 673.6C442.773 672.8 441.893 672.16 440.853 671.68C439.813 671.2 438.633 670.96 437.313 670.96C435.993 670.96 434.813 671.2 433.773 671.68C432.733 672.16 431.833 672.8 431.073 673.6C430.353 674.4 429.793 675.32 429.393 676.36C429.033 677.4 428.853 678.48 428.853 679.6C428.853 680.72 429.033 681.8 429.393 682.84C429.793 683.88 430.353 684.8 431.073 685.6C431.833 686.4 432.733 687.04 433.773 687.52C434.813 688 435.993 688.24 437.313 688.24C438.633 688.24 439.813 688 440.853 687.52C441.893 687.04 442.773 686.4 443.493 685.6C444.253 684.8 444.813 683.88 445.173 682.84C445.573 681.8 445.773 680.72 445.773 679.6ZM465.445 682.12C465.685 684.28 466.525 685.96 467.965 687.16C469.405 688.36 471.145 688.96 473.185 688.96C474.985 688.96 476.485 688.6 477.685 687.88C478.925 687.12 480.005 686.18 480.925 685.06L486.085 688.96C484.405 691.04 482.525 692.52 480.445 693.4C478.365 694.28 476.185 694.72 473.905 694.72C471.745 694.72 469.705 694.36 467.785 693.64C465.865 692.92 464.205 691.9 462.805 690.58C461.405 689.26 460.285 687.68 459.445 685.84C458.645 683.96 458.245 681.88 458.245 679.6C458.245 677.32 458.645 675.26 459.445 673.42C460.285 671.54 461.405 669.94 462.805 668.62C464.205 667.3 465.865 666.28 467.785 665.56C469.705 664.84 471.745 664.48 473.905 664.48C475.905 664.48 477.725 664.84 479.365 665.56C481.045 666.24 482.465 667.24 483.625 668.56C484.825 669.88 485.745 671.52 486.385 673.48C487.065 675.4 487.405 677.62 487.405 680.14V682.12H465.445ZM480.205 676.72C480.165 674.6 479.505 672.94 478.225 671.74C476.945 670.5 475.165 669.88 472.885 669.88C470.725 669.88 469.005 670.5 467.725 671.74C466.485 672.98 465.725 674.64 465.445 676.72H480.205Z" fill="black"/>
<path fill-rule="evenodd" clip-rule="evenodd" d="M381.221 562.052C371.989 561.384 362.836 559.882 353.874 557.564C345.424 555.452 337.998 553.076 330.191 551.805C322.467 550.155 314.579 549.759 305.881 548.736C296.671 547.868 287.59 545.953 278.814 543.027C272.57 540.755 266.853 537.235 262.013 532.682C260.863 537.135 260.188 541.698 260 546.294C262.743 550.796 266.073 554.914 269.902 558.537C277.362 565.042 285.947 570.131 295.236 573.552C304.443 576.811 313.987 579.025 323.689 580.152C333.579 581.328 343.558 581.576 353.495 580.895C363.695 580.26 373.79 578.461 383.581 575.532C384.704 575.202 385.843 574.872 386.882 574.509C388.566 570.476 389.849 566.287 390.711 562.002C387.551 562.184 384.383 562.2 381.221 562.052Z" fill="black"/>
<path fill-rule="evenodd" clip-rule="evenodd" d="M312.088 531.922C319.944 532.615 326.859 532.83 333.543 534.562C340.326 535.915 346.664 538.638 354.057 541.262C362.103 544.21 370.432 546.317 378.912 547.548C383.247 548.167 387.622 548.459 392 548.423C392 546.558 391.901 544.694 391.719 542.846C386.655 541.942 381.683 540.577 376.866 538.77C368.696 535.434 361.118 530.804 354.421 525.058C348.562 520.026 343.676 515.818 338.214 514.333C332.751 512.848 326.661 513.855 319.218 515.538C310.679 517.812 301.83 518.703 293.009 518.178C285.42 517.597 278.013 515.564 271.191 512.188C270.118 513.838 269.112 515.488 268.188 517.138C273.705 521.69 280.032 525.161 286.837 527.368C295.043 529.886 303.52 531.415 312.088 531.922Z" fill="black"/>
<path fill-rule="evenodd" clip-rule="evenodd" d="M326.016 483C308.73 482.978 292.13 489.759 279.805 501.876C285.994 504.378 292.588 505.726 299.263 505.853C308.538 506.199 317.087 503.312 324.019 500.639C330.95 497.966 336.595 496.431 341.579 498.18C346.563 499.929 350.871 504.45 355.723 510.324C360.575 516.198 367.177 522.369 375.528 526.445C380.004 528.586 384.695 530.246 389.523 531.395C385.676 517.501 377.386 505.248 365.918 496.509C354.45 487.77 340.435 483.026 326.016 483Z" fill="black"/>
<path fill-rule="evenodd" clip-rule="evenodd" d="M326.016 615C336.266 615.009 346.377 612.627 355.545 608.044C364.714 603.461 372.686 596.804 378.829 588.6C370.569 591.016 362.106 592.673 353.545 593.55C342.198 594.771 330.764 594.964 319.382 594.127C308.287 593.414 297.308 591.449 286.654 588.27C279.786 586.049 273.238 582.937 267.18 579.013C272.715 589.852 281.14 598.949 291.523 605.3C301.907 611.651 313.844 615.008 326.016 615Z" fill="black"/>
<rect x="650" width="650" height="400" fill="#EAF0F6"/>
<path d="M852 177.52H860.28L868.26 208.12H868.38L877.92 177.52H885.36L894.72 208.12H894.84L903.18 177.52H910.86L898.5 220H891.3L881.46 187.66H881.34L871.5 220H864.54L852 177.52ZM930.74 216.04H930.56C929.52 217.68 928.2 218.88 926.6 219.64C925 220.36 923.24 220.72 921.32 220.72C920 220.72 918.7 220.54 917.42 220.18C916.18 219.82 915.06 219.28 914.06 218.56C913.1 217.84 912.32 216.94 911.72 215.86C911.12 214.78 910.82 213.52 910.82 212.08C910.82 210.52 911.1 209.2 911.66 208.12C912.22 207 912.96 206.08 913.88 205.36C914.84 204.6 915.94 204 917.18 203.56C918.42 203.12 919.7 202.8 921.02 202.6C922.38 202.36 923.74 202.22 925.1 202.18C926.46 202.1 927.74 202.06 928.94 202.06H930.74V201.28C930.74 199.48 930.12 198.14 928.88 197.26C927.64 196.34 926.06 195.88 924.14 195.88C922.62 195.88 921.2 196.16 919.88 196.72C918.56 197.24 917.42 197.96 916.46 198.88L912.68 195.1C914.28 193.46 916.14 192.28 918.26 191.56C920.42 190.84 922.64 190.48 924.92 190.48C926.96 190.48 928.68 190.72 930.08 191.2C931.48 191.64 932.64 192.22 933.56 192.94C934.48 193.66 935.18 194.5 935.66 195.46C936.18 196.38 936.54 197.32 936.74 198.28C936.98 199.24 937.12 200.18 937.16 201.1C937.2 201.98 937.22 202.76 937.22 203.44V220H930.74V216.04ZM930.32 207.1H928.82C927.82 207.1 926.7 207.14 925.46 207.22C924.22 207.3 923.04 207.5 921.92 207.82C920.84 208.1 919.92 208.54 919.16 209.14C918.4 209.7 918.02 210.5 918.02 211.54C918.02 212.22 918.16 212.8 918.44 213.28C918.76 213.72 919.16 214.1 919.64 214.42C920.12 214.74 920.66 214.98 921.26 215.14C921.86 215.26 922.46 215.32 923.06 215.32C925.54 215.32 927.36 214.74 928.52 213.58C929.72 212.38 930.32 210.76 930.32 208.72V207.1ZM941.607 197.32V191.2H947.547V182.86H954.747V191.2H962.667V197.32H954.747V209.92C954.747 211.36 955.007 212.5 955.527 213.34C956.087 214.18 957.167 214.6 958.767 214.6C959.407 214.6 960.107 214.54 960.867 214.42C961.627 214.26 962.227 214.02 962.667 213.7V219.76C961.907 220.12 960.967 220.36 959.847 220.48C958.767 220.64 957.807 220.72 956.967 220.72C955.047 220.72 953.467 220.5 952.227 220.06C951.027 219.66 950.067 219.04 949.347 218.2C948.667 217.32 948.187 216.24 947.907 214.96C947.667 213.68 947.547 212.2 947.547 210.52V197.32H941.607ZM974.047 208.12C974.287 210.28 975.127 211.96 976.567 213.16C978.007 214.36 979.747 214.96 981.787 214.96C983.587 214.96 985.087 214.6 986.287 213.88C987.527 213.12 988.607 212.18 989.527 211.06L994.687 214.96C993.007 217.04 991.127 218.52 989.047 219.4C986.967 220.28 984.787 220.72 982.507 220.72C980.347 220.72 978.307 220.36 976.387 219.64C974.467 218.92 972.807 217.9 971.407 216.58C970.007 215.26 968.887 213.68 968.047 211.84C967.247 209.96 966.847 207.88 966.847 205.6C966.847 203.32 967.247 201.26 968.047 199.42C968.887 197.54 970.007 195.94 971.407 194.62C972.807 193.3 974.467 192.28 976.387 191.56C978.307 190.84 980.347 190.48 982.507 190.48C984.507 190.48 986.327 190.84 987.967 191.56C989.647 192.24 991.067 193.24 992.227 194.56C993.427 195.88 994.347 197.52 994.987 199.48C995.667 201.4 996.007 203.62 996.007 206.14V208.12H974.047ZM988.807 202.72C988.767 200.6 988.107 198.94 986.827 197.74C985.547 196.5 983.767 195.88 981.487 195.88C979.327 195.88 977.607 196.5 976.327 197.74C975.087 198.98 974.327 200.64 974.047 202.72H988.807ZM1002.74 191.2H1009.94V195.76H1010.06C1010.86 194.08 1012 192.78 1013.48 191.86C1014.96 190.94 1016.66 190.48 1018.58 190.48C1019.02 190.48 1019.44 190.52 1019.84 190.6C1020.28 190.68 1020.72 190.78 1021.16 190.9V197.86C1020.56 197.7 1019.96 197.58 1019.36 197.5C1018.8 197.38 1018.24 197.32 1017.68 197.32C1016 197.32 1014.64 197.64 1013.6 198.28C1012.6 198.88 1011.82 199.58 1011.26 200.38C1010.74 201.18 1010.38 201.98 1010.18 202.78C1010.02 203.58 1009.94 204.18 1009.94 204.58V220H1002.74V191.2ZM1041.42 199.18C1040.02 197.22 1038.14 196.24 1035.78 196.24C1034.82 196.24 1033.88 196.48 1032.96 196.96C1032.04 197.44 1031.58 198.22 1031.58 199.3C1031.58 200.18 1031.96 200.82 1032.72 201.22C1033.48 201.62 1034.44 201.96 1035.6 202.24C1036.76 202.52 1038 202.82 1039.32 203.14C1040.68 203.42 1041.94 203.88 1043.1 204.52C1044.26 205.12 1045.22 205.96 1045.98 207.04C1046.74 208.12 1047.12 209.6 1047.12 211.48C1047.12 213.2 1046.74 214.66 1045.98 215.86C1045.26 217.02 1044.3 217.96 1043.1 218.68C1041.94 219.4 1040.62 219.92 1039.14 220.24C1037.66 220.56 1036.18 220.72 1034.7 220.72C1032.46 220.72 1030.4 220.4 1028.52 219.76C1026.64 219.12 1024.96 217.96 1023.48 216.28L1028.28 211.78C1029.2 212.82 1030.18 213.68 1031.22 214.36C1032.3 215 1033.6 215.32 1035.12 215.32C1035.64 215.32 1036.18 215.26 1036.74 215.14C1037.3 215.02 1037.82 214.82 1038.3 214.54C1038.78 214.26 1039.16 213.92 1039.44 213.52C1039.76 213.08 1039.92 212.58 1039.92 212.02C1039.92 211.02 1039.54 210.28 1038.78 209.8C1038.02 209.32 1037.06 208.94 1035.9 208.66C1034.74 208.34 1033.48 208.06 1032.12 207.82C1030.8 207.54 1029.56 207.12 1028.4 206.56C1027.24 205.96 1026.28 205.14 1025.52 204.1C1024.76 203.06 1024.38 201.62 1024.38 199.78C1024.38 198.18 1024.7 196.8 1025.34 195.64C1026.02 194.44 1026.9 193.46 1027.98 192.7C1029.06 191.94 1030.3 191.38 1031.7 191.02C1033.1 190.66 1034.52 190.48 1035.96 190.48C1037.88 190.48 1039.78 190.82 1041.66 191.5C1043.54 192.14 1045.06 193.26 1046.22 194.86L1041.42 199.18ZM1072.4 199.84C1071.56 198.96 1070.68 198.26 1069.76 197.74C1068.84 197.22 1067.9 196.96 1066.94 196.96C1065.62 196.96 1064.44 197.2 1063.4 197.68C1062.36 198.16 1061.46 198.8 1060.7 199.6C1059.98 200.4 1059.42 201.32 1059.02 202.36C1058.66 203.4 1058.48 204.48 1058.48 205.6C1058.48 206.72 1058.66 207.8 1059.02 208.84C1059.42 209.88 1059.98 210.8 1060.7 211.6C1061.46 212.4 1062.36 213.04 1063.4 213.52C1064.44 214 1065.62 214.24 1066.94 214.24C1068.06 214.24 1069.1 214.02 1070.06 213.58C1071.02 213.1 1071.84 212.42 1072.52 211.54L1077.32 216.7C1076.6 217.42 1075.76 218.04 1074.8 218.56C1073.88 219.08 1072.94 219.5 1071.98 219.82C1071.02 220.14 1070.1 220.36 1069.22 220.48C1068.34 220.64 1067.58 220.72 1066.94 220.72C1064.78 220.72 1062.74 220.36 1060.82 219.64C1058.9 218.92 1057.24 217.9 1055.84 216.58C1054.44 215.26 1053.32 213.68 1052.48 211.84C1051.68 209.96 1051.28 207.88 1051.28 205.6C1051.28 203.32 1051.68 201.26 1052.48 199.42C1053.32 197.54 1054.44 195.94 1055.84 194.62C1057.24 193.3 1058.9 192.28 1060.82 191.56C1062.74 190.84 1064.78 190.48 1066.94 190.48C1068.78 190.48 1070.62 190.84 1072.46 191.56C1074.34 192.24 1075.98 193.34 1077.38 194.86L1072.4 199.84ZM1099.67 216.04H1099.49C1098.45 217.68 1097.13 218.88 1095.53 219.64C1093.93 220.36 1092.17 220.72 1090.25 220.72C1088.93 220.72 1087.63 220.54 1086.35 220.18C1085.11 219.82 1083.99 219.28 1082.99 218.56C1082.03 217.84 1081.25 216.94 1080.65 215.86C1080.05 214.78 1079.75 213.52 1079.75 212.08C1079.75 210.52 1080.03 209.2 1080.59 208.12C1081.15 207 1081.89 206.08 1082.81 205.36C1083.77 204.6 1084.87 204 1086.11 203.56C1087.35 203.12 1088.63 202.8 1089.95 202.6C1091.31 202.36 1092.67 202.22 1094.03 202.18C1095.39 202.1 1096.67 202.06 1097.87 202.06H1099.67V201.28C1099.67 199.48 1099.05 198.14 1097.81 197.26C1096.57 196.34 1094.99 195.88 1093.07 195.88C1091.55 195.88 1090.13 196.16 1088.81 196.72C1087.49 197.24 1086.35 197.96 1085.39 198.88L1081.61 195.1C1083.21 193.46 1085.07 192.28 1087.19 191.56C1089.35 190.84 1091.57 190.48 1093.85 190.48C1095.89 190.48 1097.61 190.72 1099.01 191.2C1100.41 191.64 1101.57 192.22 1102.49 192.94C1103.41 193.66 1104.11 194.5 1104.59 195.46C1105.11 196.38 1105.47 197.32 1105.67 198.28C1105.91 199.24 1106.05 200.18 1106.09 201.1C1106.13 201.98 1106.15 202.76 1106.15 203.44V220H1099.67V216.04ZM1099.25 207.1H1097.75C1096.75 207.1 1095.63 207.14 1094.39 207.22C1093.15 207.3 1091.97 207.5 1090.85 207.82C1089.77 208.1 1088.85 208.54 1088.09 209.14C1087.33 209.7 1086.95 210.5 1086.95 211.54C1086.95 212.22 1087.09 212.8 1087.37 213.28C1087.69 213.72 1088.09 214.1 1088.57 214.42C1089.05 214.74 1089.59 214.98 1090.19 215.14C1090.79 215.26 1091.39 215.32 1091.99 215.32C1094.47 215.32 1096.29 214.74 1097.45 213.58C1098.65 212.38 1099.25 210.76 1099.25 208.72V207.1ZM1113.89 191.2H1120.73V195.52H1120.85C1121.89 193.76 1123.29 192.48 1125.05 191.68C1126.81 190.88 1128.71 190.48 1130.75 190.48C1132.95 190.48 1134.93 190.88 1136.69 191.68C1138.45 192.44 1139.95 193.5 1141.19 194.86C1142.43 196.22 1143.37 197.82 1144.01 199.66C1144.65 201.5 1144.97 203.48 1144.97 205.6C1144.97 207.72 1144.63 209.7 1143.95 211.54C1143.27 213.38 1142.31 214.98 1141.07 216.34C1139.87 217.7 1138.41 218.78 1136.69 219.58C1134.97 220.34 1133.09 220.72 1131.05 220.72C1129.69 220.72 1128.49 220.58 1127.45 220.3C1126.41 220.02 1125.49 219.66 1124.69 219.22C1123.89 218.78 1123.21 218.32 1122.65 217.84C1122.09 217.32 1121.63 216.82 1121.27 216.34H1121.09V233.68H1113.89V191.2ZM1137.77 205.6C1137.77 204.48 1137.57 203.4 1137.17 202.36C1136.81 201.32 1136.25 200.4 1135.49 199.6C1134.77 198.8 1133.89 198.16 1132.85 197.68C1131.81 197.2 1130.63 196.96 1129.31 196.96C1127.99 196.96 1126.81 197.2 1125.77 197.68C1124.73 198.16 1123.83 198.8 1123.07 199.6C1122.35 200.4 1121.79 201.32 1121.39 202.36C1121.03 203.4 1120.85 204.48 1120.85 205.6C1120.85 206.72 1121.03 207.8 1121.39 208.84C1121.79 209.88 1122.35 210.8 1123.07 211.6C1123.83 212.4 1124.73 213.04 1125.77 213.52C1126.81 214 1127.99 214.24 1129.31 214.24C1130.63 214.24 1131.81 214 1132.85 213.52C1133.89 213.04 1134.77 212.4 1135.49 211.6C1136.25 210.8 1136.81 209.88 1137.17 208.84C1137.57 207.8 1137.77 206.72 1137.77 205.6ZM1157.45 208.12C1157.69 210.28 1158.53 211.96 1159.97 213.16C1161.41 214.36 1163.15 214.96 1165.19 214.96C1166.99 214.96 1168.49 214.6 1169.69 213.88C1170.93 213.12 1172.01 212.18 1172.93 211.06L1178.09 214.96C1176.41 217.04 1174.53 218.52 1172.45 219.4C1170.37 220.28 1168.19 220.72 1165.91 220.72C1163.75 220.72 1161.71 220.36 1159.79 219.64C1157.87 218.92 1156.21 217.9 1154.81 216.58C1153.41 215.26 1152.29 213.68 1151.45 211.84C1150.65 209.96 1150.25 207.88 1150.25 205.6C1150.25 203.32 1150.65 201.26 1151.45 199.42C1152.29 197.54 1153.41 195.94 1154.81 194.62C1156.21 193.3 1157.87 192.28 1159.79 191.56C1161.71 190.84 1163.75 190.48 1165.91 190.48C1167.91 190.48 1169.73 190.84 1171.37 191.56C1173.05 192.24 1174.47 193.24 1175.63 194.56C1176.83 195.88 1177.75 197.52 1178.39 199.48C1179.07 201.4 1179.41 203.62 1179.41 206.14V208.12H1157.45ZM1172.21 202.72C1172.17 200.6 1171.51 198.94 1170.23 197.74C1168.95 196.5 1167.17 195.88 1164.89 195.88C1162.73 195.88 1161.01 196.5 1159.73 197.74C1158.49 198.98 1157.73 200.64 1157.45 202.72H1172.21Z" fill="black"/>
<path fill-rule="evenodd" clip-rule="evenodd" d="M821.612 207.526C816.995 207.192 812.419 206.441 807.938 205.282C803.713 204.226 799.999 203.038 796.096 202.403C792.234 201.578 788.29 201.38 783.941 200.868C779.336 200.434 774.795 199.476 770.407 198.014C767.285 196.877 764.427 195.117 762.007 192.841C761.432 195.068 761.094 197.349 761 199.647C762.371 201.898 764.036 203.957 765.951 205.769C769.681 209.021 773.974 211.565 778.618 213.276C783.222 214.905 787.994 216.012 792.845 216.576C797.79 217.164 802.78 217.288 807.748 216.947C812.849 216.63 817.896 215.731 822.792 214.266C823.353 214.101 823.922 213.936 824.442 213.755C825.284 211.738 825.925 209.643 826.357 207.501C824.776 207.592 823.193 207.6 821.612 207.526Z" fill="black"/>
<path fill-rule="evenodd" clip-rule="evenodd" d="M787.043 192.461C790.971 192.808 794.429 192.915 797.771 193.781C801.163 194.458 804.331 195.819 808.028 197.131C812.051 198.605 816.216 199.658 820.456 200.274C822.623 200.583 824.811 200.729 827 200.711C827 199.779 826.95 198.847 826.86 197.923C824.327 197.471 821.841 196.789 819.433 195.885C815.348 194.217 811.559 191.902 808.21 189.029C805.28 186.513 802.838 184.409 800.106 183.667C797.375 182.924 794.33 183.427 790.608 184.269C786.339 185.406 781.915 185.852 777.504 185.589C773.709 185.299 770.006 184.282 766.595 182.594C766.058 183.419 765.555 184.244 765.093 185.069C767.852 187.345 771.015 189.081 774.418 190.184C778.521 191.443 782.759 192.208 787.043 192.461Z" fill="black"/>
<path fill-rule="evenodd" clip-rule="evenodd" d="M794.008 168C785.365 167.989 777.065 171.379 770.902 177.438C773.997 178.689 777.294 179.363 780.632 179.426C785.269 179.6 789.544 178.156 793.01 176.819C796.476 175.483 799.298 174.716 801.79 175.59C804.282 176.465 806.436 178.725 808.862 181.662C811.288 184.599 814.589 187.685 818.764 189.722C821.003 190.793 823.348 191.623 825.762 192.197C823.839 185.25 819.694 179.124 813.96 174.755C808.225 170.385 801.218 168.013 794.008 168Z" fill="black"/>
<path fill-rule="evenodd" clip-rule="evenodd" d="M794.009 234C799.134 234.004 804.189 232.814 808.773 230.522C813.358 228.231 817.344 224.902 820.415 220.8C816.285 222.008 812.054 222.836 807.773 223.275C802.099 223.885 796.382 223.982 790.691 223.564C785.144 223.207 779.654 222.225 774.327 220.635C770.893 219.525 767.619 217.969 764.59 216.007C767.358 221.426 771.57 225.974 776.762 229.15C781.954 232.325 787.922 234.004 794.009 234Z" fill="black"/>
<rect width="650" height="400" fill="#0F1C2A"/>
<path d="M202 177.52H210.28L218.26 208.12H218.38L227.92 177.52H235.36L244.72 208.12H244.84L253.18 177.52H260.86L248.5 220H241.3L231.46 187.66H231.34L221.5 220H214.54L202 177.52ZM280.74 216.04H280.56C279.52 217.68 278.2 218.88 276.6 219.64C275 220.36 273.24 220.72 271.32 220.72C270 220.72 268.7 220.54 267.42 220.18C266.18 219.82 265.06 219.28 264.06 218.56C263.1 217.84 262.32 216.94 261.72 215.86C261.12 214.78 260.82 213.52 260.82 212.08C260.82 210.52 261.1 209.2 261.66 208.12C262.22 207 262.96 206.08 263.88 205.36C264.84 204.6 265.94 204 267.18 203.56C268.42 203.12 269.7 202.8 271.02 202.6C272.38 202.36 273.74 202.22 275.1 202.18C276.46 202.1 277.74 202.06 278.94 202.06H280.74V201.28C280.74 199.48 280.12 198.14 278.88 197.26C277.64 196.34 276.06 195.88 274.14 195.88C272.62 195.88 271.2 196.16 269.88 196.72C268.56 197.24 267.42 197.96 266.46 198.88L262.68 195.1C264.28 193.46 266.14 192.28 268.26 191.56C270.42 190.84 272.64 190.48 274.92 190.48C276.96 190.48 278.68 190.72 280.08 191.2C281.48 191.64 282.64 192.22 283.56 192.94C284.48 193.66 285.18 194.5 285.66 195.46C286.18 196.38 286.54 197.32 286.74 198.28C286.98 199.24 287.12 200.18 287.16 201.1C287.2 201.98 287.22 202.76 287.22 203.44V220H280.74V216.04ZM280.32 207.1H278.82C277.82 207.1 276.7 207.14 275.46 207.22C274.22 207.3 273.04 207.5 271.92 207.82C270.84 208.1 269.92 208.54 269.16 209.14C268.4 209.7 268.02 210.5 268.02 211.54C268.02 212.22 268.16 212.8 268.44 213.28C268.76 213.72 269.16 214.1 269.64 214.42C270.12 214.74 270.66 214.98 271.26 215.14C271.86 215.26 272.46 215.32 273.06 215.32C275.54 215.32 277.36 214.74 278.52 213.58C279.72 212.38 280.32 210.76 280.32 208.72V207.1ZM291.607 197.32V191.2H297.547V182.86H304.747V191.2H312.667V197.32H304.747V209.92C304.747 211.36 305.007 212.5 305.527 213.34C306.087 214.18 307.167 214.6 308.767 214.6C309.407 214.6 310.107 214.54 310.867 214.42C311.627 214.26 312.227 214.02 312.667 213.7V219.76C311.907 220.12 310.967 220.36 309.847 220.48C308.767 220.64 307.807 220.72 306.967 220.72C305.047 220.72 303.467 220.5 302.227 220.06C301.027 219.66 300.067 219.04 299.347 218.2C298.667 217.32 298.187 216.24 297.907 214.96C297.667 213.68 297.547 212.2 297.547 210.52V197.32H291.607ZM324.047 208.12C324.287 210.28 325.127 211.96 326.567 213.16C328.007 214.36 329.747 214.96 331.787 214.96C333.587 214.96 335.087 214.6 336.287 213.88C337.527 213.12 338.607 212.18 339.527 211.06L344.687 214.96C343.007 217.04 341.127 218.52 339.047 219.4C336.967 220.28 334.787 220.72 332.507 220.72C330.347 220.72 328.307 220.36 326.387 219.64C324.467 218.92 322.807 217.9 321.407 216.58C320.007 215.26 318.887 213.68 318.047 211.84C317.247 209.96 316.847 207.88 316.847 205.6C316.847 203.32 317.247 201.26 318.047 199.42C318.887 197.54 320.007 195.94 321.407 194.62C322.807 193.3 324.467 192.28 326.387 191.56C328.307 190.84 330.347 190.48 332.507 190.48C334.507 190.48 336.327 190.84 337.967 191.56C339.647 192.24 341.067 193.24 342.227 194.56C343.427 195.88 344.347 197.52 344.987 199.48C345.667 201.4 346.007 203.62 346.007 206.14V208.12H324.047ZM338.807 202.72C338.767 200.6 338.107 198.94 336.827 197.74C335.547 196.5 333.767 195.88 331.487 195.88C329.327 195.88 327.607 196.5 326.327 197.74C325.087 198.98 324.327 200.64 324.047 202.72H338.807ZM352.74 191.2H359.94V195.76H360.06C360.86 194.08 362 192.78 363.48 191.86C364.96 190.94 366.66 190.48 368.58 190.48C369.02 190.48 369.44 190.52 369.84 190.6C370.28 190.68 370.72 190.78 371.16 190.9V197.86C370.56 197.7 369.96 197.58 369.36 197.5C368.8 197.38 368.24 197.32 367.68 197.32C366 197.32 364.64 197.64 363.6 198.28C362.6 198.88 361.82 199.58 361.26 200.38C360.74 201.18 360.38 201.98 360.18 202.78C360.02 203.58 359.94 204.18 359.94 204.58V220H352.74V191.2ZM391.42 199.18C390.02 197.22 388.14 196.24 385.78 196.24C384.82 196.24 383.88 196.48 382.96 196.96C382.04 197.44 381.58 198.22 381.58 199.3C381.58 200.18 381.96 200.82 382.72 201.22C383.48 201.62 384.44 201.96 385.6 202.24C386.76 202.52 388 202.82 389.32 203.14C390.68 203.42 391.94 203.88 393.1 204.52C394.26 205.12 395.22 205.96 395.98 207.04C396.74 208.12 397.12 209.6 397.12 211.48C397.12 213.2 396.74 214.66 395.98 215.86C395.26 217.02 394.3 217.96 393.1 218.68C391.94 219.4 390.62 219.92 389.14 220.24C387.66 220.56 386.18 220.72 384.7 220.72C382.46 220.72 380.4 220.4 378.52 219.76C376.64 219.12 374.96 217.96 373.48 216.28L378.28 211.78C379.2 212.82 380.18 213.68 381.22 214.36C382.3 215 383.6 215.32 385.12 215.32C385.64 215.32 386.18 215.26 386.74 215.14C387.3 215.02 387.82 214.82 388.3 214.54C388.78 214.26 389.16 213.92 389.44 213.52C389.76 213.08 389.92 212.58 389.92 212.02C389.92 211.02 389.54 210.28 388.78 209.8C388.02 209.32 387.06 208.94 385.9 208.66C384.74 208.34 383.48 208.06 382.12 207.82C380.8 207.54 379.56 207.12 378.4 206.56C377.24 205.96 376.28 205.14 375.52 204.1C374.76 203.06 374.38 201.62 374.38 199.78C374.38 198.18 374.7 196.8 375.34 195.64C376.02 194.44 376.9 193.46 377.98 192.7C379.06 191.94 380.3 191.38 381.7 191.02C383.1 190.66 384.52 190.48 385.96 190.48C387.88 190.48 389.78 190.82 391.66 191.5C393.54 192.14 395.06 193.26 396.22 194.86L391.42 199.18ZM422.401 199.84C421.561 198.96 420.681 198.26 419.761 197.74C418.841 197.22 417.901 196.96 416.941 196.96C415.621 196.96 414.441 197.2 413.401 197.68C412.361 198.16 411.461 198.8 410.701 199.6C409.981 200.4 409.421 201.32 409.021 202.36C408.661 203.4 408.481 204.48 408.481 205.6C408.481 206.72 408.661 207.8 409.021 208.84C409.421 209.88 409.981 210.8 410.701 211.6C411.461 212.4 412.361 213.04 413.401 213.52C414.441 214 415.621 214.24 416.941 214.24C418.061 214.24 419.101 214.02 420.061 213.58C421.021 213.1 421.841 212.42 422.521 211.54L427.321 216.7C426.601 217.42 425.761 218.04 424.801 218.56C423.881 219.08 422.941 219.5 421.981 219.82C421.021 220.14 420.101 220.36 419.221 220.48C418.341 220.64 417.581 220.72 416.941 220.72C414.781 220.72 412.741 220.36 410.821 219.64C408.901 218.92 407.241 217.9 405.841 216.58C404.441 215.26 403.321 213.68 402.481 211.84C401.681 209.96 401.281 207.88 401.281 205.6C401.281 203.32 401.681 201.26 402.481 199.42C403.321 197.54 404.441 195.94 405.841 194.62C407.241 193.3 408.901 192.28 410.821 191.56C412.741 190.84 414.781 190.48 416.941 190.48C418.781 190.48 420.621 190.84 422.461 191.56C424.341 192.24 425.981 193.34 427.381 194.86L422.401 199.84ZM449.666 216.04H449.486C448.446 217.68 447.126 218.88 445.526 219.64C443.926 220.36 442.166 220.72 440.246 220.72C438.926 220.72 437.626 220.54 436.346 220.18C435.106 219.82 433.986 219.28 432.986 218.56C432.026 217.84 431.246 216.94 430.646 215.86C430.046 214.78 429.746 213.52 429.746 212.08C429.746 210.52 430.026 209.2 430.586 208.12C431.146 207 431.886 206.08 432.806 205.36C433.766 204.6 434.866 204 436.106 203.56C437.346 203.12 438.626 202.8 439.946 202.6C441.306 202.36 442.666 202.22 444.026 202.18C445.386 202.1 446.666 202.06 447.866 202.06H449.666V201.28C449.666 199.48 449.046 198.14 447.806 197.26C446.566 196.34 444.986 195.88 443.066 195.88C441.546 195.88 440.126 196.16 438.806 196.72C437.486 197.24 436.346 197.96 435.386 198.88L431.606 195.1C433.206 193.46 435.066 192.28 437.186 191.56C439.346 190.84 441.566 190.48 443.846 190.48C445.886 190.48 447.606 190.72 449.006 191.2C450.406 191.64 451.566 192.22 452.486 192.94C453.406 193.66 454.106 194.5 454.586 195.46C455.106 196.38 455.466 197.32 455.666 198.28C455.906 199.24 456.046 200.18 456.086 201.1C456.126 201.98 456.146 202.76 456.146 203.44V220H449.666V216.04ZM449.246 207.1H447.746C446.746 207.1 445.626 207.14 444.386 207.22C443.146 207.3 441.966 207.5 440.846 207.82C439.766 208.1 438.846 208.54 438.086 209.14C437.326 209.7 436.946 210.5 436.946 211.54C436.946 212.22 437.086 212.8 437.366 213.28C437.686 213.72 438.086 214.1 438.566 214.42C439.046 214.74 439.586 214.98 440.186 215.14C440.786 215.26 441.386 215.32 441.986 215.32C444.466 215.32 446.286 214.74 447.446 213.58C448.646 212.38 449.246 210.76 449.246 208.72V207.1ZM463.893 191.2H470.733V195.52H470.853C471.893 193.76 473.293 192.48 475.053 191.68C476.813 190.88 478.713 190.48 480.753 190.48C482.953 190.48 484.933 190.88 486.693 191.68C488.453 192.44 489.953 193.5 491.193 194.86C492.433 196.22 493.373 197.82 494.013 199.66C494.653 201.5 494.973 203.48 494.973 205.6C494.973 207.72 494.633 209.7 493.953 211.54C493.273 213.38 492.313 214.98 491.073 216.34C489.873 217.7 488.413 218.78 486.693 219.58C484.973 220.34 483.093 220.72 481.053 220.72C479.693 220.72 478.493 220.58 477.452 220.3C476.413 220.02 475.493 219.66 474.693 219.22C473.893 218.78 473.213 218.32 472.653 217.84C472.093 217.32 471.633 216.82 471.273 216.34H471.093V233.68H463.893V191.2ZM487.773 205.6C487.773 204.48 487.573 203.4 487.173 202.36C486.813 201.32 486.253 200.4 485.493 199.6C484.773 198.8 483.893 198.16 482.853 197.68C481.813 197.2 480.633 196.96 479.313 196.96C477.993 196.96 476.813 197.2 475.773 197.68C474.733 198.16 473.833 198.8 473.073 199.6C472.353 200.4 471.793 201.32 471.393 202.36C471.033 203.4 470.853 204.48 470.853 205.6C470.853 206.72 471.033 207.8 471.393 208.84C471.793 209.88 472.353 210.8 473.073 211.6C473.833 212.4 474.733 213.04 475.773 213.52C476.813 214 477.993 214.24 479.313 214.24C480.633 214.24 481.813 214 482.853 213.52C483.893 213.04 484.773 212.4 485.493 211.6C486.253 210.8 486.813 209.88 487.173 208.84C487.573 207.8 487.773 206.72 487.773 205.6ZM507.445 208.12C507.685 210.28 508.525 211.96 509.965 213.16C511.405 214.36 513.145 214.96 515.185 214.96C516.985 214.96 518.485 214.6 519.685 213.88C520.925 213.12 522.005 212.18 522.925 211.06L528.085 214.96C526.405 217.04 524.525 218.52 522.445 219.4C520.365 220.28 518.185 220.72 515.905 220.72C513.745 220.72 511.705 220.36 509.785 219.64C507.865 218.92 506.205 217.9 504.805 216.58C503.405 215.26 502.285 213.68 501.445 211.84C500.645 209.96 500.245 207.88 500.245 205.6C500.245 203.32 500.645 201.26 501.445 199.42C502.285 197.54 503.405 195.94 504.805 194.62C506.205 193.3 507.865 192.28 509.785 191.56C511.705 190.84 513.745 190.48 515.905 190.48C517.905 190.48 519.725 190.84 521.365 191.56C523.045 192.24 524.465 193.24 525.625 194.56C526.825 195.88 527.745 197.52 528.385 199.48C529.065 201.4 529.405 203.62 529.405 206.14V208.12H507.445ZM522.205 202.72C522.165 200.6 521.505 198.94 520.225 197.74C518.945 196.5 517.165 195.88 514.885 195.88C512.725 195.88 511.005 196.5 509.725 197.74C508.485 198.98 507.725 200.64 507.445 202.72H522.205Z" fill="white"/>
<path fill-rule="evenodd" clip-rule="evenodd" d="M171.612 207.526C166.995 207.192 162.419 206.441 157.938 205.282C153.713 204.226 149.999 203.038 146.096 202.403C142.234 201.578 138.29 201.38 133.941 200.868C129.336 200.434 124.795 199.476 120.407 198.014C117.285 196.877 114.427 195.117 112.007 192.841C111.432 195.068 111.094 197.349 111 199.647C112.371 201.898 114.036 203.957 115.951 205.769C119.681 209.021 123.974 211.565 128.618 213.276C133.222 214.905 137.994 216.012 142.845 216.576C147.79 217.164 152.78 217.288 157.748 216.947C162.849 216.63 167.896 215.731 172.792 214.266C173.353 214.101 173.922 213.936 174.442 213.755C175.284 211.738 175.925 209.643 176.357 207.501C174.776 207.592 173.193 207.6 171.612 207.526Z" fill="white"/>
<path fill-rule="evenodd" clip-rule="evenodd" d="M137.043 192.461C140.971 192.808 144.429 192.915 147.771 193.781C151.163 194.458 154.331 195.819 158.028 197.131C162.051 198.605 166.216 199.658 170.456 200.274C172.623 200.583 174.811 200.729 177 200.711C177 199.779 176.95 198.847 176.86 197.923C174.327 197.471 171.841 196.789 169.433 195.885C165.348 194.217 161.559 191.902 158.21 189.029C155.28 186.513 152.838 184.409 150.106 183.667C147.375 182.924 144.33 183.427 140.608 184.269C136.339 185.406 131.915 185.852 127.504 185.589C123.709 185.299 120.006 184.282 116.595 182.594C116.058 183.419 115.555 184.244 115.093 185.069C117.852 187.345 121.015 189.081 124.418 190.184C128.521 191.443 132.759 192.208 137.043 192.461Z" fill="white"/>
<path fill-rule="evenodd" clip-rule="evenodd" d="M144.008 168C135.365 167.989 127.065 171.379 120.902 177.438C123.997 178.689 127.294 179.363 130.632 179.426C135.269 179.6 139.544 178.156 143.01 176.819C146.476 175.483 149.298 174.716 151.79 175.59C154.282 176.465 156.436 178.725 158.862 181.662C161.288 184.599 164.589 187.685 168.764 189.722C171.003 190.793 173.348 191.623 175.762 192.197C173.839 185.25 169.694 179.124 163.96 174.755C158.225 170.385 151.218 168.013 144.008 168Z" fill="white"/>
<path fill-rule="evenodd" clip-rule="evenodd" d="M144.009 234C149.134 234.004 154.189 232.814 158.773 230.522C163.358 228.231 167.344 224.902 170.415 220.8C166.285 222.008 162.054 222.836 157.773 223.275C152.099 223.885 146.382 223.982 140.691 223.564C135.144 223.207 129.654 222.225 124.327 220.635C120.893 219.525 117.619 217.969 114.59 216.007C117.358 221.426 121.57 225.974 126.762 229.15C131.954 232.325 137.922 234.004 144.009 234Z" fill="white"/>
</svg>
